<svg width="381" height="301" viewBox="0 0 381 301" fill="none" xmlns="http://www.w3.org/2000/svg">
<g clip-path="url(#clip0_173_1529)">
<ellipse cx="250.526" cy="225.199" rx="30.3532" ry="30.3629" fill="#7E99EC"/>
<g clip-path="url(#clip1_173_1529)">
<g clip-path="url(#clip2_173_1529)">
<circle cx="2.5" cy="190.085" r="2.5" fill="#7E99EC"/>
<circle cx="27.5" cy="190.085" r="2.5" fill="#7E99EC"/>
<circle cx="52.5" cy="190.085" r="2.5" fill="#7E99EC"/>
<circle cx="77.5" cy="190.085" r="2.5" fill="#7E99EC"/>
</g>
<g clip-path="url(#clip3_173_1529)">
<circle cx="2.5" cy="215.085" r="2.5" fill="#7E99EC"/>
<circle cx="27.5" cy="215.085" r="2.5" fill="#7E99EC"/>
<circle cx="52.5" cy="215.085" r="2.5" fill="#7E99EC"/>
<circle cx="77.5" cy="215.085" r="2.5" fill="#7E99EC"/>
</g>
</g>
<path d="M347.475 28.5187C347.475 30.0199 346.258 31.2369 344.757 31.2369C343.256 31.2369 342.039 30.0199 342.039 28.5187C342.039 27.0175 343.256 25.8005 344.757 25.8005C346.258 25.8005 347.475 27.0175 347.475 28.5187Z" fill="#7E99EC"/>
<path d="M364.238 28.5187C364.238 30.0199 363.021 31.2369 361.519 31.2369C360.018 31.2369 358.801 30.0199 358.801 28.5187C358.801 27.0175 360.018 25.8005 361.519 25.8005C363.021 25.8005 364.238 27.0175 364.238 28.5187Z" fill="#7E99EC"/>
<path d="M381 28.5187C381 30.0199 379.783 31.2369 378.282 31.2369C376.78 31.2369 375.563 30.0199 375.563 28.5187C375.563 27.0175 376.78 25.8005 378.282 25.8005C379.783 25.8005 381 27.0175 381 28.5187Z" fill="#7E99EC"/>
<path d="M347.475 45.2809C347.475 46.7821 346.258 47.9991 344.757 47.9991C343.256 47.9991 342.039 46.7821 342.039 45.2809C342.039 43.7797 343.256 42.5627 344.757 42.5627C346.258 42.5627 347.475 43.7797 347.475 45.2809Z" fill="#7E99EC"/>
<path d="M364.238 45.2809C364.238 46.7821 363.021 47.9991 361.519 47.9991C360.018 47.9991 358.801 46.7821 358.801 45.2809C358.801 43.7797 360.018 42.5627 361.519 42.5627C363.021 42.5627 364.238 43.7797 364.238 45.2809Z" fill="#7E99EC"/>
<path d="M381 45.2809C381 46.7821 379.783 47.9991 378.282 47.9991C376.78 47.9991 375.563 46.7821 375.563 45.2809C375.563 43.7797 376.78 42.5627 378.282 42.5627C379.783 42.5627 381 43.7797 381 45.2809Z" fill="#7E99EC"/>
<path d="M347.475 62.0431C347.475 63.5443 346.258 64.7613 344.757 64.7613C343.256 64.7613 342.039 63.5443 342.039 62.0431C342.039 60.5419 343.256 59.3249 344.757 59.3249C346.258 59.3249 347.475 60.5419 347.475 62.0431Z" fill="#7E99EC"/>
<path d="M364.238 62.0431C364.238 63.5443 363.021 64.7613 361.519 64.7613C360.018 64.7613 358.801 63.5443 358.801 62.0431C358.801 60.5419 360.018 59.3249 361.519 59.3249C363.021 59.3249 364.238 60.5419 364.238 62.0431Z" fill="#7E99EC"/>
<path d="M381 62.0431C381 63.5443 379.783 64.7613 378.282 64.7613C376.78 64.7613 375.563 63.5443 375.563 62.0431C375.563 60.5419 376.78 59.3249 378.282 59.3249C379.783 59.3249 381 60.5419 381 62.0431Z" fill="#7E99EC"/>
<path d="M347.475 78.8053C347.475 80.3065 346.258 81.5235 344.757 81.5235C343.256 81.5235 342.039 80.3065 342.039 78.8053C342.039 77.3041 343.256 76.0871 344.757 76.0871C346.258 76.0871 347.475 77.3041 347.475 78.8053Z" fill="#7E99EC"/>
<path d="M364.238 78.8053C364.238 80.3065 363.021 81.5235 361.519 81.5235C360.018 81.5235 358.801 80.3065 358.801 78.8053C358.801 77.3041 360.018 76.0871 361.519 76.0871C363.021 76.0871 364.238 77.3041 364.238 78.8053Z" fill="#7E99EC"/>
<path d="M381 78.8053C381 80.3065 379.783 81.5235 378.282 81.5235C376.78 81.5235 375.563 80.3065 375.563 78.8053C375.563 77.3041 376.78 76.0871 378.282 76.0871C379.783 76.0871 381 77.3041 381 78.8053Z" fill="#7E99EC"/>
<path d="M347.475 95.5675C347.475 97.0687 346.258 98.2857 344.757 98.2857C343.256 98.2857 342.039 97.0687 342.039 95.5675C342.039 94.0663 343.256 92.8493 344.757 92.8493C346.258 92.8493 347.475 94.0663 347.475 95.5675Z" fill="#7E99EC"/>
<path d="M364.238 95.5675C364.238 97.0687 363.021 98.2857 361.519 98.2857C360.018 98.2857 358.801 97.0687 358.801 95.5675C358.801 94.0663 360.018 92.8493 361.519 92.8493C363.021 92.8493 364.238 94.0663 364.238 95.5675Z" fill="#7E99EC"/>
<path d="M381 95.5675C381 97.0687 379.783 98.2857 378.282 98.2857C376.78 98.2857 375.563 97.0687 375.563 95.5675C375.563 94.0663 376.78 92.8493 378.282 92.8493C379.783 92.8493 381 94.0663 381 95.5675Z" fill="#7E99EC"/>
<path d="M347.475 112.33C347.475 113.831 346.258 115.048 344.757 115.048C343.256 115.048 342.039 113.831 342.039 112.33C342.039 110.828 343.256 109.611 344.757 109.611C346.258 109.611 347.475 110.828 347.475 112.33Z" fill="#7E99EC"/>
<path d="M364.238 112.33C364.238 113.831 363.021 115.048 361.519 115.048C360.018 115.048 358.801 113.831 358.801 112.33C358.801 110.828 360.018 109.611 361.519 109.611C363.021 109.611 364.238 110.828 364.238 112.33Z" fill="#7E99EC"/>
<path d="M381 112.33C381 113.831 379.783 115.048 378.282 115.048C376.78 115.048 375.563 113.831 375.563 112.33C375.563 110.828 376.78 109.611 378.282 109.611C379.783 109.611 381 110.828 381 112.33Z" fill="#7E99EC"/>
<ellipse cx="177.815" cy="23.7611" rx="3.39774" ry="3.39884" fill="#7E99EC"/>
<ellipse cx="161.28" cy="35.3172" rx="4.53032" ry="4.53178" fill="#7E99EC"/>
<ellipse cx="149.048" cy="55.2571" rx="2.26516" ry="2.26589" fill="#7E99EC"/>
<ellipse cx="205.756" cy="155.933" rx="76.8955" ry="76.9203" fill="white"/>
<ellipse cx="170.986" cy="116.479" rx="2.63408" ry="2.63493" fill="#0E0E0E"/>
<ellipse cx="154.128" cy="131.586" rx="2.63408" ry="2.63493" fill="#0E0E0E"/>
<ellipse cx="186.79" cy="122.451" rx="1.22924" ry="1.22964" fill="#0E0E0E"/>
<ellipse cx="182.576" cy="156.881" rx="1.22924" ry="1.22964" fill="#0E0E0E"/>
<ellipse cx="195.219" cy="141.423" rx="1.22924" ry="1.22964" fill="#0E0E0E"/>
<ellipse cx="197.678" cy="192.365" rx="1.22924" ry="1.22964" fill="#0E0E0E"/>
<ellipse cx="202.595" cy="171.988" rx="1.22924" ry="1.22964" fill="#0E0E0E"/>
<ellipse cx="204.702" cy="163.556" rx="1.22924" ry="1.22964" fill="#0E0E0E"/>
<ellipse cx="235.96" cy="131.586" rx="1.22924" ry="1.22964" fill="#0E0E0E"/>
<ellipse cx="189.249" cy="194.824" rx="2.63408" ry="2.63493" fill="#0E0E0E"/>
<ellipse cx="224.721" cy="176.907" rx="2.63408" ry="2.63493" fill="#0E0E0E"/>
<ellipse cx="257.384" cy="128.775" rx="2.63408" ry="2.63493" fill="#0E0E0E"/>
<ellipse cx="234.555" cy="119.992" rx="2.63408" ry="2.63493" fill="#0E0E0E"/>
<line x1="1.5" y1="-1.5" x2="30.8238" y2="-1.5" transform="matrix(0.738848 0.673873 -0.673635 0.739064 156.762 134.221)" stroke="#0E0E0E" stroke-width="3" stroke-linecap="round"/>
<line x1="1.5" y1="-1.5" x2="9.84848" y2="-1.5" transform="matrix(0.928435 0.371494 -0.371287 0.928518 173.971 118.06)" stroke="#0E0E0E" stroke-width="3" stroke-linecap="round"/>
<line x1="1.5" y1="-1.5" x2="14.744" y2="-1.5" transform="matrix(0.367556 0.930001 -0.92992 0.367761 188.02 124.384)" stroke="#0E0E0E" stroke-width="3" stroke-linecap="round"/>
<line x1="1.5" y1="-1.5" x2="17.8979" y2="-1.5" transform="matrix(0.375556 0.9268 -0.926715 0.375764 195.746 143.707)" stroke="#0E0E0E" stroke-width="3" stroke-linecap="round"/>
<line x1="1.5" y1="-1.5" x2="2.69808" y2="-1.5" transform="matrix(-0.250978 0.967993 -0.967954 -0.25113 203.434 165.511)" stroke="#0E0E0E" stroke-width="3" stroke-linecap="round"/>
<line x1="1.5" y1="-1.5" x2="19.5108" y2="-1.5" transform="matrix(0.785641 0.618683 -0.618436 0.785835 183.805 158.462)" stroke="#0E0E0E" stroke-width="3" stroke-linecap="round"/>
<line x1="1.5" y1="-1.5" x2="15.3764" y2="-1.5" transform="matrix(0.978092 0.208172 -0.208043 0.97812 204.526 173.218)" stroke="#0E0E0E" stroke-width="3" stroke-linecap="round"/>
<line x1="1.5" y1="-1.5" x2="37.9102" y2="-1.5" transform="matrix(-0.692109 0.721793 -0.72157 -0.692342 233.902 133.001)" stroke="#0E0E0E" stroke-width="3" stroke-linecap="round"/>
<line x1="1.5" y1="-1.5" x2="4.47942" y2="-1.5" transform="matrix(0.152922 0.988238 -0.988223 0.153018 234.031 123.69)" stroke="#0E0E0E" stroke-width="3" stroke-linecap="round"/>
<line x1="1.5" y1="-1.5" x2="14.7926" y2="-1.5" transform="matrix(0.991595 -0.12938 0.129298 0.991606 237.892 132.113)" stroke="#0E0E0E" stroke-width="3" stroke-linecap="round"/>
<line x1="1.5" y1="-1.5" x2="15.8331" y2="-1.5" transform="matrix(0.183662 -0.98299 0.982968 0.183777 199.96 191.838)" stroke="#0E0E0E" stroke-width="3" stroke-linecap="round"/>
<line x1="1.5" y1="-1.5" x2="2.16675" y2="-1.5" transform="matrix(0.957801 -0.287433 0.287263 0.957852 192.585 194.649)" stroke="#0E0E0E" stroke-width="3" stroke-linecap="round"/>
<path d="M349.082 7.9485C355.583 14.2936 358.026 24.2953 356.753 37.0775C355.48 49.8534 350.501 65.3209 342.274 82.4722C325.822 116.77 296.433 157.696 257.998 197.105C219.563 236.515 179.388 266.916 145.519 284.215C128.582 292.867 113.247 298.228 100.51 299.817C87.7678 301.406 77.7122 299.21 71.2105 292.865C64.7088 286.52 62.266 276.518 63.5392 263.736C64.8117 250.96 69.7911 235.492 78.0183 218.341C94.4704 184.044 123.859 143.117 162.294 103.708C200.729 64.2984 240.904 33.8977 274.773 16.5979C291.71 7.94673 307.045 2.58506 319.782 0.996828C332.524 -0.592179 342.58 1.60347 349.082 7.9485Z" stroke="#7E99EC"/>
</g>
<defs>
<clipPath id="clip0_173_1529">
<rect width="381" height="300.813" fill="white"/>
</clipPath>
<clipPath id="clip1_173_1529">
<rect width="90.6064" height="45.3178" fill="white" transform="translate(0 187.585)"/>
</clipPath>
<clipPath id="clip2_173_1529">
<rect width="200" height="25" fill="white" transform="translate(0 187.585)"/>
</clipPath>
<clipPath id="clip3_173_1529">
<rect width="200" height="25" fill="white" transform="translate(0 212.585)"/>
</clipPath>
</defs>
</svg>
