<svg width="50" height="50" viewBox="0 0 50 50" fill="none" xmlns="http://www.w3.org/2000/svg">
<rect width="50" height="50" rx="10" fill="#7E99EC"/>
<path d="M39.1508 12.2086C38.8092 11.9422 38.3955 11.766 37.9538 11.6986C37.5121 11.6313 37.0588 11.6754 36.6422 11.8261L8.23193 22.0948C7.73362 22.2695 7.31153 22.5902 7.03066 23.0073C6.74979 23.4245 6.62571 23.9151 6.67753 24.4035C6.72375 24.8917 6.94072 25.353 7.29589 25.7182C7.65106 26.0834 8.12529 26.3327 8.64747 26.4289L15.8654 27.7461V36.046C15.8652 36.495 16.0099 36.934 16.2811 37.3072C16.5524 37.6804 16.938 37.9711 17.3891 38.1423C17.6876 38.2528 18.0061 38.3105 18.3279 38.3122C18.6513 38.3133 18.9717 38.2549 19.2703 38.1406C19.5689 38.0263 19.8398 37.8583 20.067 37.6465L24.0684 33.9781L30.1167 38.8788C30.5633 39.2412 31.1373 39.4425 31.7327 39.4453C31.9945 39.4503 32.2552 39.4119 32.5022 39.332C32.9083 39.2137 33.2739 39 33.5627 38.7118C33.8515 38.4236 34.0536 38.0711 34.149 37.689L39.9357 14.4323C40.0368 14.031 40.0172 13.6119 39.8789 13.2201C39.7406 12.8283 39.4889 12.4786 39.1508 12.2086ZM16.8042 25.6074L9.13995 24.2052L30.6246 16.4293L16.8042 25.6074ZM18.3279 36.046V29.3325L22.2062 32.4768L18.3279 36.046ZM31.7481 37.1791L19.0666 26.9105L37.3347 14.7722L31.7481 37.1791Z" fill="white"/>
</svg>
