<svg width="50" height="50" viewBox="0 0 50 50" fill="none" xmlns="http://www.w3.org/2000/svg">
<rect width="50" height="50" rx="10" fill="#7E99EC"/>
<path d="M25.0002 16.9999C23.4179 16.9999 21.8712 17.4691 20.5556 18.3482C19.24 19.2272 18.2146 20.4766 17.6091 21.9384C17.0036 23.4003 16.8452 25.0088 17.1539 26.5606C17.4626 28.1125 18.2245 29.538 19.3433 30.6568C20.4621 31.7756 21.8876 32.5375 23.4394 32.8462C24.9913 33.1549 26.5998 32.9965 28.0616 32.391C29.5234 31.7855 30.7729 30.7601 31.6519 29.4445C32.531 28.1289 33.0002 26.5822 33.0002 24.9999C33.0002 22.8782 32.1573 20.8434 30.657 19.3431C29.1567 17.8428 27.1219 16.9999 25.0002 16.9999ZM25.0002 30.3333C23.9453 30.3333 22.9142 30.0205 22.0371 29.4344C21.1601 28.8484 20.4765 28.0154 20.0728 27.0409C19.6691 26.0664 19.5635 24.994 19.7693 23.9594C19.9751 22.9249 20.483 21.9746 21.2289 21.2287C21.9748 20.4828 22.9251 19.9749 23.9597 19.7691C24.9942 19.5633 26.0666 19.6689 27.0411 20.0726C28.0157 20.4762 28.8486 21.1598 29.4347 22.0369C30.0207 22.9139 30.3335 23.9451 30.3335 24.9999C30.3291 26.4131 29.7658 27.7671 28.7665 28.7663C27.7673 29.7655 26.4133 30.3289 25.0002 30.3333ZM32.3335 8.33325H17.6668C15.1915 8.33325 12.8175 9.31658 11.0672 11.0669C9.31683 12.8173 8.3335 15.1912 8.3335 17.6666V32.3333C8.3335 34.8086 9.31683 37.1826 11.0672 38.9329C12.8175 40.6833 15.1915 41.6666 17.6668 41.6666H32.3335C34.8088 41.6666 37.1828 40.6833 38.9332 38.9329C40.6835 37.1826 41.6668 34.8086 41.6668 32.3333V17.6666C41.6668 15.1912 40.6835 12.8173 38.9332 11.0669C37.1828 9.31658 34.8088 8.33325 32.3335 8.33325ZM39.0002 32.3333C39.0002 33.2087 38.8277 34.0756 38.4927 34.8845C38.1577 35.6933 37.6666 36.4282 37.0475 37.0473C36.4285 37.6664 35.6936 38.1574 34.8847 38.4924C34.0759 38.8275 33.209 38.9999 32.3335 38.9999H17.6668C16.7913 38.9999 15.9244 38.8275 15.1156 38.4924C14.3068 38.1574 13.5718 37.6664 12.9528 37.0473C12.3337 36.4282 11.8427 35.6933 11.5076 34.8845C11.1726 34.0756 11.0002 33.2087 11.0002 32.3333V17.6666C11.0002 15.8985 11.7025 14.2028 12.9528 12.9525C14.203 11.7023 15.8987 10.9999 17.6668 10.9999H32.3335C33.209 10.9999 34.0759 11.1724 34.8847 11.5074C35.6936 11.8424 36.4285 12.3335 37.0475 12.9525C37.6666 13.5716 38.1577 14.3065 38.4927 15.1154C38.8277 15.9242 39.0002 16.7911 39.0002 17.6666V32.3333ZM35.6668 16.3333C35.6668 16.7288 35.5495 17.1155 35.3298 17.4444C35.11 17.7733 34.7976 18.0296 34.4322 18.181C34.0667 18.3324 33.6646 18.372 33.2766 18.2948C32.8887 18.2177 32.5323 18.0272 32.2526 17.7475C31.9729 17.4678 31.7824 17.1114 31.7053 16.7234C31.6281 16.3355 31.6677 15.9333 31.8191 15.5679C31.9704 15.2024 32.2268 14.8901 32.5557 14.6703C32.8846 14.4505 33.2713 14.3333 33.6668 14.3333C34.1973 14.3333 34.706 14.544 35.081 14.919C35.4561 15.2941 35.6668 15.8028 35.6668 16.3333Z" fill="white"/>
</svg>
