<svg width="169" height="40" viewBox="0 0 169 40" fill="none" xmlns="http://www.w3.org/2000/svg">
<g clip-path="url(#clip0_159_618)">
<path d="M19.715 0.215313C19.654 0.240738 19.632 0.240738 19.5676 0.223787C19.4625 0.196669 19.3845 0.198364 19.315 0.232262C19.2591 0.257687 19.2489 0.257687 19.1676 0.232262C19.0574 0.194975 19.0472 0.196669 18.9608 0.239042C18.8981 0.271246 18.8811 0.27294 18.8167 0.255991C18.7184 0.230568 18.6523 0.232262 18.5913 0.262772C18.554 0.28311 18.515 0.286499 18.4387 0.278025C18.3625 0.26955 18.3201 0.274635 18.2591 0.296669C18.1896 0.323788 18.1709 0.323788 18.0964 0.305143C18.0167 0.284805 18.0065 0.286499 17.9387 0.323788C17.8709 0.361076 17.8591 0.361076 17.7709 0.342432C17.6794 0.323788 17.6709 0.325483 17.6116 0.366161C17.5574 0.401754 17.5404 0.405144 17.5014 0.389889C17.432 0.364466 17.3811 0.369551 17.3065 0.408533C17.2506 0.437347 17.2218 0.440737 17.1455 0.432262C17.0676 0.422092 17.0472 0.425484 17.0048 0.455992C16.9591 0.489889 16.9489 0.491585 16.8777 0.47294C16.8082 0.454296 16.7964 0.455992 16.7421 0.488195C16.6981 0.517008 16.6557 0.525482 16.576 0.525482C16.4981 0.525482 16.454 0.535652 16.4116 0.561075C16.3574 0.594975 16.3252 0.59667 16.2489 0.567856C16.2353 0.561075 16.2015 0.578026 16.1709 0.603449C16.1235 0.642431 16.1082 0.645823 16.0404 0.635653C15.9794 0.627178 15.954 0.632263 15.9082 0.659382C15.8726 0.681416 15.8235 0.694975 15.7743 0.694975C15.7337 0.694975 15.6659 0.710228 15.6252 0.728872C15.5845 0.747517 15.515 0.762772 15.4709 0.762772C15.4201 0.762772 15.3692 0.776331 15.3353 0.796669C15.3031 0.817009 15.2489 0.830568 15.2082 0.830568C15.1659 0.830568 15.1116 0.845821 15.076 0.866161C15.037 0.889889 14.9998 0.898365 14.9692 0.89328C14.9387 0.886499 14.8998 0.898365 14.8506 0.927177C14.793 0.959381 14.7625 0.966162 14.7184 0.957685C14.6692 0.949211 14.6506 0.955992 14.6065 0.991585C14.5608 1.03057 14.5421 1.03565 14.4862 1.02718C14.432 1.0187 14.4116 1.02379 14.3692 1.05938C14.332 1.08989 14.2998 1.10175 14.2455 1.10175C14.193 1.10175 14.1506 1.11531 14.1065 1.14582C14.0608 1.17633 14.0286 1.1865 13.9964 1.17972C13.9625 1.17294 13.9303 1.18311 13.8879 1.21192C13.854 1.23565 13.8099 1.2543 13.7896 1.2543C13.7523 1.2543 13.6116 1.30514 13.4998 1.35769C13.4625 1.37464 13.4082 1.38989 13.3811 1.38989C13.3489 1.38989 13.3065 1.40853 13.2676 1.44074C13.2184 1.48141 13.1964 1.48989 13.154 1.48141C13.1099 1.47124 13.0879 1.47972 13.0337 1.52379C12.9845 1.56277 12.9506 1.57633 12.9015 1.57633C12.8642 1.57633 12.8252 1.5865 12.8133 1.60006C12.8031 1.61362 12.7574 1.63904 12.715 1.6543C12.6709 1.67125 12.6286 1.68989 12.6184 1.69836C12.6099 1.70514 12.5845 1.71192 12.5642 1.71192C12.5133 1.71192 12.4421 1.74752 12.3998 1.79498C12.3743 1.82209 12.354 1.82887 12.315 1.8204C12.2726 1.81362 12.2489 1.82209 12.1964 1.86447C12.1591 1.89328 12.1099 1.9204 12.0879 1.92718C12.0642 1.93226 12.0252 1.94752 12.0015 1.95938C11.9777 1.97294 11.9438 1.98311 11.9269 1.98311C11.9082 1.98311 11.8642 2.01023 11.8252 2.04243C11.7811 2.08142 11.7387 2.10175 11.7065 2.10175C11.6608 2.10175 11.437 2.2187 11.415 2.2543C11.4099 2.26447 11.376 2.27125 11.3421 2.27125C11.3015 2.27125 11.2676 2.28481 11.2387 2.31192C11.1794 2.36616 11.0387 2.44074 10.9896 2.44074C10.9692 2.44074 10.9201 2.46786 10.8811 2.50006C10.8048 2.56447 10.6574 2.64413 10.615 2.64413C10.5998 2.64413 10.5608 2.66446 10.5286 2.68989C10.4116 2.77802 10.3015 2.84752 10.276 2.84752C10.237 2.84752 10.0811 2.94074 10.0337 2.99158C10.0099 3.01701 9.92348 3.07125 9.83874 3.11192C9.75569 3.1543 9.64382 3.2204 9.59298 3.26277C9.54213 3.30345 9.44213 3.36616 9.37264 3.40006C9.30315 3.43565 9.18789 3.51023 9.1184 3.56786C9.04891 3.62548 8.96925 3.6865 8.94043 3.70175C8.74721 3.81192 8.63196 3.89158 8.50823 4.00006C8.41332 4.08311 8.30145 4.16616 8.20145 4.22887C8.07772 4.30684 7.98281 4.37972 7.68959 4.63565C7.52179 4.78142 7.47603 4.8187 7.31501 4.94413C6.82179 5.33057 5.52179 6.63565 5.09298 7.17802C5.05569 7.22379 4.96247 7.33565 4.88789 7.42548C4.76755 7.56447 4.67094 7.69158 4.30823 8.17633C4.27433 8.22209 4.22179 8.2865 4.19467 8.3204C4.16586 8.3543 4.13027 8.40006 4.11332 8.42379C4.09806 8.44752 4.02518 8.5543 3.9506 8.66108C3.77094 8.9187 3.64382 9.11023 3.5862 9.20345C3.56077 9.24582 3.51501 9.31701 3.4862 9.36277C3.4184 9.46786 3.36416 9.5543 3.32857 9.6187C3.31332 9.64582 3.27264 9.71192 3.23705 9.76277C3.16247 9.87464 3.03366 10.095 3.03366 10.1119C3.03366 10.1187 3.01501 10.1475 2.99298 10.178C2.97094 10.2068 2.93196 10.2712 2.90823 10.3187C2.8845 10.3679 2.84382 10.4475 2.8201 10.495C2.79467 10.5441 2.76077 10.6051 2.74382 10.6306C2.72518 10.6543 2.64891 10.8001 2.57433 10.9526C2.49976 11.1051 2.42688 11.2492 2.41332 11.2746C2.39976 11.3018 2.37942 11.3424 2.36586 11.3679C2.34213 11.4136 2.25399 11.5984 2.12857 11.8679C2.09467 11.939 2.06755 12.0068 2.06755 12.017C2.06755 12.0272 2.04043 12.0916 2.00823 12.1577C1.97603 12.2238 1.94891 12.2899 1.94891 12.3034C1.94891 12.3187 1.92857 12.3645 1.90484 12.4068C1.88111 12.4492 1.84721 12.5272 1.83027 12.5797C1.81162 12.6323 1.7862 12.6933 1.77264 12.7153C1.75908 12.7373 1.73535 12.8001 1.7201 12.856C1.70654 12.9119 1.67603 12.995 1.6523 13.0424C1.63027 13.0882 1.60315 13.1611 1.59298 13.2034C1.58111 13.2458 1.55569 13.317 1.53366 13.3645C1.51332 13.4102 1.4862 13.4916 1.47603 13.5424C1.46416 13.5933 1.43705 13.6746 1.41501 13.7238C1.39128 13.7712 1.36416 13.8526 1.35569 13.9018C1.34552 13.9509 1.3184 14.0373 1.29637 14.0933C1.27264 14.1492 1.24382 14.2475 1.23027 14.3136C1.21671 14.378 1.18959 14.4662 1.17094 14.5102C1.1523 14.5526 1.12857 14.6441 1.11671 14.7136C1.10654 14.7814 1.08111 14.8848 1.05908 14.9407C1.03705 14.9967 1.00654 15.1136 0.991282 15.2001C0.976028 15.2882 0.950604 15.395 0.93196 15.4407C0.915011 15.4848 0.889588 15.6018 0.876028 15.6984C0.862469 15.7933 0.833655 15.9221 0.813316 15.9814C0.792977 16.0424 0.765859 16.1746 0.753994 16.278C0.740435 16.3814 0.711621 16.5492 0.687893 16.6526C0.664164 16.7543 0.637045 16.9373 0.626876 17.0594C0.616706 17.1797 0.592977 17.3441 0.574333 17.4204C0.552299 17.5153 0.526876 17.7509 0.498062 18.1238C0.476028 18.434 0.450605 18.7594 0.440435 18.8475C0.411622 19.1323 0.401452 20.1153 0.421791 20.6357C0.443825 21.2102 0.530266 22.2492 0.567554 22.4018C0.581113 22.4611 0.604842 22.6018 0.618401 22.7153C0.63196 22.8289 0.665859 23.0645 0.692977 23.2373C0.720096 23.4102 0.750605 23.6119 0.760774 23.6865C0.772638 23.7611 0.798062 23.8848 0.821791 23.9611C0.843825 24.0373 0.867554 24.1373 0.872638 24.1814C0.879418 24.2272 0.904842 24.339 0.93196 24.4323C0.957384 24.5255 0.994672 24.6814 1.01501 24.7797C1.06416 25.0306 1.14213 25.3204 1.17603 25.3865C1.19128 25.417 1.22179 25.5085 1.24382 25.5899C1.35399 25.9967 1.37942 26.0831 1.41501 26.1611C1.45399 26.2458 1.53366 26.4746 1.59298 26.6746C1.63535 26.8136 1.7184 27.034 1.77772 27.1611C1.80484 27.217 1.8506 27.3357 1.88111 27.4238C1.90993 27.5119 1.98281 27.6831 2.04043 27.8051C2.09976 27.9255 2.16077 28.0662 2.17772 28.117C2.19467 28.1679 2.25738 28.3018 2.31671 28.4136C2.37772 28.5272 2.44213 28.656 2.46077 28.7034C2.51162 28.8323 2.56077 28.934 2.60993 29.0085C2.63366 29.0458 2.70654 29.1797 2.76925 29.3051C2.83196 29.4306 2.91332 29.5763 2.94721 29.6272C2.98281 29.678 3.04721 29.7933 3.09128 29.8814C3.13535 29.9696 3.19298 30.0645 3.2184 30.0933C3.24552 30.1204 3.29806 30.2085 3.33704 30.2882C3.37433 30.3679 3.43366 30.4628 3.46755 30.5001C3.50145 30.5373 3.5506 30.6102 3.57772 30.6611C3.65399 30.8018 3.69298 30.8628 3.78111 30.9746C3.89128 31.117 3.92349 31.1424 3.97094 31.1289C3.99298 31.1238 4.14382 30.9916 4.30484 30.834C4.58959 30.556 4.59806 30.5458 4.59806 30.4797C4.59806 30.3984 4.52349 30.2526 4.36925 30.0357C4.31332 29.9577 4.23366 29.8289 4.19128 29.7475C4.14891 29.6679 4.09298 29.578 4.06586 29.5509C4.02349 29.5051 3.89806 29.2746 3.89806 29.2407C3.89806 29.2323 3.86755 29.1865 3.83196 29.1373C3.79467 29.0882 3.70145 28.9238 3.62518 28.7746C3.54891 28.6238 3.46925 28.4763 3.44721 28.4492C3.42688 28.4204 3.38959 28.3441 3.36416 28.2797C3.33874 28.2136 3.25908 28.039 3.1862 27.8899C3.11332 27.7407 3.04891 27.5967 3.04382 27.5696C3.03705 27.5407 3.00484 27.4628 2.97264 27.395C2.94043 27.3272 2.91501 27.2645 2.91501 27.256C2.91501 27.2492 2.89637 27.2136 2.87264 27.1797C2.84891 27.1441 2.79128 27.0001 2.74552 26.8594C2.69806 26.717 2.63874 26.5594 2.61162 26.5085C2.55908 26.4068 2.44043 26.0729 2.44043 26.0221C2.44043 26.0051 2.4201 25.9458 2.39637 25.8899C2.37264 25.834 2.33874 25.739 2.32349 25.678C2.30654 25.617 2.28111 25.5441 2.26586 25.5136C2.23874 25.4628 2.15908 25.1679 2.08281 24.834C2.06416 24.756 2.03535 24.6645 2.0184 24.6306C1.98789 24.5696 1.89298 24.139 1.83874 23.8153C1.82349 23.7272 1.79637 23.6119 1.77772 23.5611C1.76077 23.5085 1.73027 23.3594 1.71332 23.2289C1.69467 23.0984 1.66755 22.9458 1.65399 22.8899C1.62857 22.7916 1.61671 22.6814 1.57433 22.2458C1.56416 22.134 1.54552 21.9814 1.53196 21.9068C1.47264 21.5712 1.41501 20.0407 1.44043 19.4645C1.4506 19.2424 1.46586 18.8645 1.47433 18.6272C1.4845 18.3899 1.50315 18.1187 1.51671 18.0255C1.56416 17.7119 1.57433 17.6357 1.59298 17.4238C1.60315 17.3068 1.63366 17.1018 1.66077 16.9662C1.68789 16.8306 1.71501 16.6594 1.7201 16.5848C1.72688 16.5102 1.7506 16.3916 1.77264 16.3221C1.79467 16.2526 1.82349 16.1136 1.83705 16.0153C1.8506 15.917 1.87772 15.795 1.89637 15.7441C1.91501 15.6933 1.94213 15.5814 1.95569 15.4967C1.96925 15.4102 1.99637 15.3051 2.01501 15.2611C2.03366 15.2187 2.06077 15.1238 2.07603 15.0492C2.08959 14.9746 2.1201 14.8577 2.14213 14.7916C2.16586 14.7238 2.19298 14.6272 2.20315 14.5746C2.21332 14.5221 2.23705 14.4492 2.25569 14.4136C2.27433 14.3763 2.30145 14.2865 2.31501 14.2119C2.33027 14.1373 2.35569 14.0526 2.37264 14.0255C2.38959 13.9967 2.4201 13.9136 2.44043 13.839C2.46077 13.7645 2.48789 13.6865 2.50145 13.6662C2.51501 13.6441 2.53874 13.5797 2.5523 13.5221C2.56755 13.4628 2.59806 13.3797 2.6201 13.3373C2.64213 13.2933 2.66925 13.2221 2.67942 13.1763C2.69128 13.1306 2.72179 13.0543 2.74891 13.0068C2.77433 12.9594 2.79637 12.9051 2.79637 12.8865C2.79637 12.8662 2.8184 12.8085 2.84552 12.7577C2.87264 12.7068 2.90654 12.6255 2.92349 12.5746C2.94043 12.5238 2.96755 12.4645 2.98281 12.4407C2.99976 12.417 3.02518 12.3628 3.04043 12.3187C3.05399 12.2746 3.08959 12.195 3.1184 12.1424C3.14552 12.0899 3.16925 12.0357 3.16925 12.0238C3.16925 12.0119 3.19128 11.9628 3.2201 11.9153C3.24721 11.8679 3.27094 11.8221 3.27094 11.8153C3.27094 11.8085 3.29637 11.7526 3.32857 11.6933C3.35908 11.634 3.39128 11.5662 3.39806 11.5424C3.40484 11.5187 3.43196 11.4696 3.45738 11.4323C3.48281 11.395 3.51162 11.3373 3.52349 11.3051C3.53366 11.2729 3.56586 11.2119 3.59298 11.1695C3.6201 11.1272 3.64382 11.0882 3.64382 11.0814C3.64382 11.0746 3.67094 11.0272 3.70315 10.9763C3.73535 10.9255 3.76247 10.8763 3.76247 10.8679C3.76247 10.8594 3.78111 10.8255 3.80484 10.7916C3.82688 10.7577 3.88111 10.6594 3.92518 10.5729C3.97094 10.4865 4.03027 10.3814 4.05908 10.339C4.08959 10.2967 4.13874 10.217 4.16925 10.1611C4.19976 10.1051 4.25399 10.017 4.28789 9.96616C4.37942 9.82718 4.50993 9.62718 4.5506 9.55938C4.59467 9.4882 4.62349 9.44582 4.71332 9.32209C4.74891 9.27125 4.82857 9.15599 4.88789 9.06786C4.94891 8.97972 5.03535 8.86108 5.07942 8.80514C5.12518 8.74921 5.26077 8.57463 5.37942 8.41701C5.49976 8.25938 5.61501 8.11023 5.63535 8.0865C5.65738 8.06277 5.79128 7.90853 5.93196 7.74582C6.73365 6.82548 7.05738 6.49836 7.78789 5.87294C7.93704 5.74582 8.11671 5.5865 8.1862 5.5187C8.25738 5.4526 8.37942 5.35091 8.45738 5.29158C8.53704 5.23396 8.6167 5.17463 8.63535 5.15938C8.65399 5.14582 8.70484 5.11023 8.74891 5.08311C8.79298 5.0543 8.89128 4.97464 8.96925 4.90345C9.04721 4.83396 9.13874 4.75938 9.17433 4.74074C9.29128 4.67463 9.32857 4.6526 9.42687 4.58819C9.47942 4.5543 9.52687 4.5187 9.53365 4.51023C9.55569 4.47124 9.74552 4.34243 9.85569 4.28989C9.92179 4.25769 10.0065 4.20514 10.0455 4.17125C10.1659 4.06786 10.2099 4.03904 10.2659 4.02718C10.2947 4.0204 10.3286 4.00345 10.3404 3.98989C10.3506 3.97633 10.3709 3.96616 10.3828 3.96616C10.3964 3.96616 10.4387 3.93735 10.4794 3.90175C10.5811 3.81023 10.715 3.72887 10.7659 3.72887C10.7896 3.72887 10.8167 3.7187 10.8269 3.70684C10.8659 3.66108 11.0811 3.52548 11.115 3.52548C11.1489 3.52548 11.2794 3.44921 11.3726 3.37464C11.3964 3.35599 11.4303 3.33904 11.4489 3.33904C11.4913 3.33904 11.6337 3.26616 11.715 3.20175C11.7506 3.17294 11.7981 3.1526 11.8269 3.1526C11.854 3.1526 11.8947 3.13904 11.9167 3.12209C12.0167 3.04582 12.1404 2.98311 12.1879 2.98311C12.2252 2.98311 12.2625 2.96447 12.3065 2.92379C12.3472 2.8882 12.3896 2.86447 12.4184 2.86447C12.4659 2.86447 12.6218 2.79667 12.6998 2.74243C12.7286 2.72209 12.7642 2.71192 12.7896 2.71701C12.8201 2.72209 12.8506 2.70853 12.9015 2.66786C12.9438 2.63057 12.9879 2.61023 13.0184 2.61023C13.0472 2.61023 13.0981 2.59497 13.132 2.57803C13.2981 2.48989 13.3709 2.46108 13.4015 2.46786C13.4218 2.47294 13.4591 2.45599 13.4998 2.42379C13.5557 2.37972 13.5777 2.37125 13.6303 2.37803C13.6811 2.38481 13.7015 2.37803 13.7489 2.33735C13.7879 2.30345 13.8235 2.28989 13.8692 2.28819C13.9099 2.28819 13.9574 2.27125 13.9964 2.24582C14.0303 2.22209 14.0828 2.20345 14.1133 2.20345C14.1438 2.20345 14.193 2.18819 14.2235 2.16955C14.254 2.15091 14.2964 2.13565 14.3184 2.13565C14.3404 2.13565 14.3896 2.1204 14.4286 2.10345C14.4676 2.0848 14.5303 2.06616 14.5676 2.05938C14.6048 2.0526 14.6438 2.03904 14.654 2.03057C14.6659 2.02209 14.7252 2.00514 14.7862 1.99158C14.8489 1.97972 14.9099 1.96108 14.9201 1.95091C14.932 1.94243 14.9828 1.92887 15.0337 1.92209C15.0845 1.91531 15.154 1.89667 15.1862 1.87972C15.2184 1.86108 15.2743 1.84752 15.3082 1.84752C15.3438 1.84752 15.4031 1.83226 15.4404 1.81192C15.4845 1.78819 15.5235 1.77972 15.5506 1.7865C15.5811 1.79498 15.6167 1.78481 15.6659 1.75599C15.7218 1.72209 15.7523 1.71531 15.8015 1.72379C15.8506 1.73057 15.8743 1.72548 15.9031 1.70006C15.9642 1.64582 15.9794 1.64074 16.0404 1.66277C16.0947 1.68311 16.1048 1.67972 16.1642 1.63904C16.2184 1.60345 16.2421 1.59667 16.3065 1.60514C16.3642 1.61192 16.3981 1.60514 16.4472 1.57972C16.4947 1.5543 16.532 1.54752 16.5998 1.5526C16.6726 1.55938 16.6964 1.5543 16.7353 1.52379C16.7828 1.4865 16.8184 1.48141 16.9099 1.50175C16.9523 1.51023 16.976 1.50345 17.0116 1.47633C17.0506 1.44413 17.0709 1.44074 17.1489 1.45091C17.2252 1.45938 17.254 1.45599 17.3235 1.42209C17.3964 1.3882 17.4167 1.3865 17.476 1.40175C17.532 1.41701 17.5523 1.41362 17.6031 1.3865C17.654 1.35938 17.6828 1.35599 17.7726 1.36447C17.8659 1.37464 17.8879 1.37125 17.9404 1.33904C17.9981 1.30345 18.0082 1.30175 18.0913 1.32209C18.1692 1.34074 18.1879 1.33904 18.237 1.31362C18.2828 1.28989 18.3201 1.2865 18.415 1.29328C18.5014 1.30006 18.5455 1.29667 18.576 1.27972C18.6252 1.25091 18.7303 1.24752 18.8116 1.27125C18.8574 1.28311 18.8845 1.27972 18.9506 1.2526C19.0269 1.2187 19.0421 1.2187 19.1421 1.23735C19.237 1.25769 19.2591 1.25599 19.3218 1.23057C19.3862 1.20514 19.4099 1.20345 19.5116 1.22209C19.5998 1.23735 19.637 1.23735 19.6692 1.22379C19.7235 1.19836 19.8353 1.19836 19.9184 1.2204C19.9659 1.23396 20.0048 1.23226 20.0777 1.21362C20.1642 1.19158 20.1879 1.19158 20.3015 1.21531C20.4116 1.23735 20.4438 1.23735 20.5218 1.2187C20.5981 1.20175 20.6303 1.20175 20.7167 1.2204C20.8286 1.24582 20.8845 1.24752 21.037 1.22887C21.1082 1.2187 21.1506 1.22379 21.2082 1.24582C21.2828 1.27464 21.3489 1.27464 21.4845 1.24582C21.5184 1.23904 21.5777 1.24752 21.6506 1.26955C21.7472 1.30006 21.7913 1.30345 21.9303 1.29498C22.076 1.2865 22.1065 1.28989 22.237 1.33057C22.3676 1.37294 22.3879 1.37464 22.4659 1.35599C22.5404 1.33904 22.5692 1.34074 22.7031 1.37294C22.7862 1.39328 22.8811 1.4204 22.9116 1.43396C22.9506 1.44921 22.9998 1.4543 23.0692 1.44582C23.1879 1.43396 23.3862 1.46616 23.4794 1.51192C23.5472 1.54582 23.7286 1.57463 23.8811 1.57633C23.9642 1.57633 24.1438 1.62209 24.3726 1.70006C24.5133 1.74752 24.6743 1.77972 24.7235 1.76955C24.7523 1.76447 24.7998 1.77125 24.837 1.7865C24.8726 1.80175 24.9235 1.81362 24.9489 1.81362C24.9743 1.81362 25.032 1.82718 25.0777 1.84413C25.1574 1.87464 25.2455 1.90684 25.4065 1.96108C25.4489 1.97633 25.515 2.00175 25.5557 2.0187C25.5947 2.03735 25.6421 2.05091 25.6591 2.05091C25.6777 2.05091 25.7269 2.06616 25.7709 2.0848C25.815 2.10345 25.8743 2.1187 25.9031 2.1187C25.9337 2.1187 25.9862 2.13396 26.0218 2.1526C26.0557 2.17125 26.1099 2.1865 26.1421 2.1865C26.1743 2.1865 26.2404 2.20514 26.2913 2.22887C26.3404 2.2526 26.3981 2.27125 26.4201 2.27125C26.4421 2.27125 26.4947 2.28989 26.5387 2.31362C26.5828 2.33735 26.6303 2.35599 26.6472 2.35599C26.6625 2.35599 26.7353 2.38141 26.8082 2.41362C26.8828 2.44413 26.9692 2.47633 27.0014 2.48311C27.032 2.48989 27.0896 2.51362 27.1269 2.53396C27.1642 2.5543 27.2218 2.57633 27.254 2.58311C27.2862 2.58989 27.3404 2.61192 27.3726 2.63396C27.4048 2.65599 27.476 2.6865 27.5303 2.70175C27.5828 2.71701 27.6625 2.75091 27.7082 2.77802C27.7523 2.80345 27.815 2.83057 27.8472 2.83565C27.8794 2.84243 27.9337 2.86616 27.9676 2.8882C28.0014 2.91023 28.0845 2.9526 28.154 2.98311C28.2235 3.01192 28.3065 3.05599 28.3387 3.08311C28.3709 3.10853 28.4337 3.14243 28.4777 3.15938C28.5218 3.17463 28.6015 3.2187 28.6557 3.25599C28.7099 3.29158 28.7692 3.32209 28.7862 3.32209C28.8031 3.32209 28.876 3.35938 28.9472 3.40514C29.0184 3.44921 29.1353 3.51023 29.2082 3.54074C29.2811 3.56955 29.3726 3.61531 29.4116 3.64074C29.4506 3.66786 29.5337 3.71362 29.5964 3.74243C29.6574 3.77125 29.7472 3.82887 29.793 3.86955C29.8404 3.91192 29.9218 3.96616 29.976 3.99158C30.032 4.01701 30.137 4.07803 30.2116 4.12718C30.2862 4.17463 30.3862 4.23565 30.432 4.26277C30.4794 4.28989 30.5438 4.33226 30.576 4.35938C30.6438 4.41362 30.7015 4.4187 30.7625 4.37633C30.7862 4.36108 30.9252 4.22379 31.0726 4.07463C31.315 3.82548 31.3387 3.79498 31.3387 3.74074C31.3387 3.68989 31.3252 3.66786 31.2421 3.59328C31.1879 3.54582 31.0947 3.48311 31.0337 3.4526C30.8743 3.37633 30.7269 3.28819 30.6845 3.24582C30.632 3.19158 30.5048 3.10175 30.4828 3.10175C30.4726 3.10175 30.4116 3.06786 30.3489 3.02548C30.2133 2.93396 30.0879 2.86616 29.9777 2.82379C29.9337 2.80684 29.876 2.77633 29.8506 2.7543C29.8252 2.73396 29.7455 2.6848 29.6726 2.64582C29.5981 2.60853 29.515 2.55599 29.4845 2.53057C29.4557 2.50345 29.3981 2.46955 29.3557 2.4526C29.3133 2.43565 29.2608 2.41023 29.237 2.39667C29.115 2.32887 28.9218 2.23735 28.9015 2.23735C28.8879 2.23735 28.8574 2.22209 28.832 2.20514C28.7794 2.16616 28.6218 2.09497 28.554 2.07803C28.5286 2.07294 28.4709 2.04413 28.4252 2.01701C28.3811 1.9882 28.3303 1.96616 28.315 1.96616C28.2981 1.96616 28.2167 1.93226 28.132 1.88989C28.0472 1.84752 27.9659 1.81362 27.9506 1.81362C27.9353 1.81362 27.8828 1.78989 27.832 1.76277C27.7811 1.73396 27.7303 1.71192 27.7184 1.71192C27.7065 1.71192 27.6489 1.68989 27.5896 1.66277C27.5303 1.63565 27.4387 1.59836 27.3845 1.57803C27.3303 1.55769 27.2557 1.52718 27.2201 1.50853C27.1828 1.48989 27.1353 1.47464 27.115 1.47464C27.093 1.47464 27.0438 1.45599 27.0048 1.43396C26.9659 1.41192 26.9082 1.3882 26.8777 1.38141C26.8472 1.37464 26.7845 1.35091 26.737 1.33057C26.6913 1.31023 26.6252 1.28311 26.593 1.27125C26.5608 1.25938 26.4845 1.23226 26.4235 1.20853C26.1981 1.12209 25.9201 1.03735 25.7964 1.01701C25.5879 0.98311 25.376 0.923788 25.0252 0.798365C24.8777 0.747517 24.7794 0.723787 24.6947 0.718702C24.5404 0.713619 24.4201 0.694975 24.3303 0.662771C24.0472 0.562771 23.9709 0.544127 23.7726 0.533957C23.6337 0.527178 23.5455 0.513618 23.493 0.491585C23.3557 0.435652 23.1777 0.405144 23.0591 0.417007C22.9794 0.425484 22.9303 0.422092 22.8777 0.401754C22.7353 0.350906 22.6235 0.333958 22.4879 0.344128C22.3743 0.354296 22.3404 0.349211 22.2574 0.317009C22.1743 0.286499 22.1337 0.281416 21.9692 0.284805C21.815 0.288195 21.7523 0.28311 21.6489 0.252602C21.5218 0.217009 21.5167 0.217009 21.4303 0.247517C21.3438 0.276331 21.3404 0.276331 21.2421 0.240738C21.1235 0.196669 21.0421 0.193279 20.9709 0.228872C20.9252 0.250906 20.9082 0.250906 20.7845 0.218702C20.6591 0.186501 20.6438 0.186501 20.5523 0.210228C20.4659 0.232262 20.4438 0.232262 20.3591 0.210228C20.2998 0.193279 20.2337 0.188194 20.1862 0.194975C20.0777 0.210228 19.9523 0.211924 19.8642 0.198364C19.8099 0.18989 19.7676 0.194975 19.715 0.215313Z" fill="white"/>
<path d="M19.5084 5.73881C19.1626 5.75745 18.8101 5.78457 18.6016 5.80661C14.649 6.22186 11.0762 8.25068 8.67785 11.4439C7.37107 13.1812 6.48294 15.1964 6.07785 17.3405C5.90497 18.2575 5.83887 18.9829 5.83887 19.9914C5.83887 20.6676 5.85243 20.9592 5.90836 21.4829C6.24904 24.7354 7.69141 27.7575 10.0084 30.0761C12.0423 32.1083 14.6287 33.4761 17.4423 34.0066C18.3626 34.1795 19.0829 34.2439 20.0931 34.2439C20.7694 34.2439 21.066 34.2303 21.5846 34.1761C24.1524 33.9066 26.588 32.949 28.6406 31.4066C31.8338 29.0083 33.8643 25.4337 34.2779 21.4829C34.3338 20.9625 34.3456 20.6676 34.3456 19.9914C34.3456 19.1524 34.3168 18.7134 34.2101 17.9575C33.5609 13.3591 30.649 9.32356 26.4745 7.23542C24.7863 6.39135 23.044 5.91339 21.1016 5.76254C20.8711 5.74389 19.7134 5.72695 19.5084 5.73881ZM12.8643 11.949C12.8643 11.971 12.8863 11.993 12.9304 12.0151C13.1202 12.1117 13.2711 12.4202 13.2084 12.5846C13.1948 12.6219 13.1711 12.6863 13.1558 12.7286C13.1134 12.8507 12.9931 12.9795 12.8643 13.0405C12.6507 13.1422 12.4287 13.1015 12.2406 12.9253C12.1253 12.8168 12.0677 12.7049 12.0558 12.5625C12.0372 12.3473 12.1355 12.1507 12.3219 12.0286C12.3694 11.9981 12.4067 11.9608 12.4067 11.9439C12.4067 11.9185 12.4287 11.9151 12.6355 11.9151C12.8524 11.9151 12.8643 11.9168 12.8643 11.949ZM13.6609 12.71C13.7677 12.7558 13.9134 12.8151 13.9829 12.8439C14.0524 12.871 14.1524 12.91 14.2033 12.932C14.2541 12.9524 14.3372 12.9846 14.388 13.0015C14.4389 13.0202 14.5202 13.0524 14.5694 13.0761C14.6185 13.0998 14.6677 13.1185 14.6762 13.1185C14.6863 13.1185 14.8338 13.1744 15.005 13.2439C15.1745 13.3117 15.3524 13.3812 15.4016 13.3964C15.4846 13.4236 15.5304 13.4625 15.5931 13.5558L15.6185 13.5947L15.7101 13.5168C15.8338 13.41 15.8812 13.3897 15.9914 13.3897C16.1067 13.3897 16.1914 13.4286 16.2762 13.5236C16.3643 13.6219 16.3948 13.688 16.3931 13.7914C16.3931 13.8693 16.3829 13.893 16.3185 13.9778C16.2151 14.1151 16.105 14.1863 15.9982 14.1863C15.827 14.1863 15.6524 14.0473 15.6016 13.8727C15.5694 13.7642 15.5338 13.7388 15.4423 13.7541C15.3914 13.7625 15.3473 13.7524 15.227 13.7032C15.144 13.6693 15.0185 13.6202 14.949 13.593C14.8795 13.5659 14.7609 13.5202 14.6863 13.4914C14.6117 13.4608 14.4677 13.4066 14.366 13.371C14.2643 13.3337 14.1728 13.2981 14.1626 13.2897C14.1524 13.2812 14.1134 13.2659 14.0762 13.2541C14.0389 13.2422 13.9609 13.2117 13.9016 13.1846C13.8423 13.1575 13.7745 13.1303 13.749 13.1236C13.7236 13.1185 13.644 13.088 13.5711 13.0558C13.4982 13.0253 13.427 12.9998 13.4151 12.9998C13.4033 12.9998 13.3694 12.9795 13.3406 12.9558C13.2965 12.9185 13.288 12.8998 13.288 12.8354C13.288 12.7659 13.2965 12.749 13.3558 12.6914C13.3948 12.6558 13.4338 12.6269 13.4456 12.6269C13.4558 12.6269 13.5541 12.6642 13.6609 12.71ZM26.4745 12.7456C26.6101 12.8151 26.6931 12.8981 26.7592 13.0337C26.8134 13.1422 26.8219 13.1744 26.8219 13.2795C26.8219 13.3795 26.8118 13.4151 26.7643 13.5134C26.7033 13.6354 26.6033 13.7388 26.4829 13.8015C26.427 13.832 26.3846 13.8388 26.2372 13.8388C26.027 13.8388 25.9745 13.8185 25.8389 13.688C25.7134 13.5625 25.6609 13.4439 25.6609 13.2744C25.6609 13.1591 25.6677 13.1269 25.7134 13.0371C25.7762 12.91 25.9151 12.7778 26.0389 12.7303C26.1592 12.6812 26.3643 12.688 26.4745 12.7456ZM26.4151 13.9829C26.4812 14.0083 26.4914 14.0439 26.5084 14.2727C26.5168 14.3981 26.5321 14.5575 26.5406 14.6269C26.5914 15.0202 26.5965 15.0981 26.5694 15.1507C26.5541 15.1795 26.5423 15.2134 26.5423 15.2269C26.5423 15.2541 26.6117 15.3151 26.6914 15.3591C26.7202 15.3744 26.7795 15.4337 26.8236 15.4897C26.8677 15.5473 26.9151 15.593 26.9287 15.593C26.9423 15.593 26.9795 15.5625 27.0117 15.5269C27.066 15.4625 27.0728 15.4592 27.1999 15.449C27.2711 15.4439 27.4643 15.4236 27.627 15.4049C27.7897 15.388 27.966 15.3676 28.0168 15.3625C28.0677 15.3591 28.1863 15.3439 28.2795 15.3303C28.3728 15.3168 28.5406 15.2981 28.6524 15.288C28.8948 15.2693 29.2507 15.232 29.5423 15.1964C29.6592 15.1829 29.8338 15.1625 29.9321 15.1524C30.0304 15.1422 30.1541 15.1253 30.2067 15.1151C30.3033 15.0981 30.305 15.0981 30.3931 15.1591C30.4423 15.193 30.488 15.2202 30.4931 15.2202C30.4999 15.2202 30.5185 15.1693 30.5355 15.1049C30.5524 15.0422 30.5795 14.9592 30.5965 14.9185C30.6355 14.8253 30.7694 14.6981 30.8914 14.6354C31.1168 14.5202 31.4304 14.6083 31.5863 14.8286C31.6134 14.8659 31.649 14.8981 31.666 14.8981C31.6914 14.8981 31.6948 14.9219 31.6948 15.1693C31.6948 15.4269 31.6931 15.4405 31.6626 15.4405C31.6423 15.4405 31.6067 15.471 31.5762 15.5151C31.4456 15.6947 31.1965 15.793 31.0033 15.7371C30.7931 15.6744 30.6643 15.5659 30.5863 15.3829C30.5592 15.3219 30.5321 15.271 30.5253 15.271C30.5185 15.271 30.4965 15.2964 30.4779 15.3286C30.4101 15.4422 30.3507 15.4625 29.9914 15.4914C29.8609 15.5015 29.705 15.5185 29.644 15.5269C29.5829 15.5371 29.427 15.5541 29.2965 15.5676C29.166 15.5812 28.9643 15.6032 28.8473 15.6168C28.7304 15.6303 28.4829 15.6575 28.2965 15.6778C28.1101 15.6964 27.8694 15.7236 27.7626 15.7371C27.6558 15.7507 27.4558 15.771 27.3168 15.7829C27.0711 15.8032 27.066 15.8015 27.0168 15.7659C26.9897 15.7456 26.9558 15.7286 26.944 15.7286C26.9304 15.7286 26.8931 15.7795 26.8626 15.8405C26.7999 15.9625 26.6965 16.0541 26.5745 16.0964C26.4321 16.1439 26.2219 16.0286 26.1423 15.8558C26.0626 15.6863 26.1117 15.493 26.2575 15.3947C26.3507 15.332 26.3592 15.2829 26.2897 15.1846C26.244 15.1185 26.2372 15.0914 26.2287 14.949C26.2219 14.8608 26.2067 14.7083 26.1948 14.61C26.1558 14.3202 26.1473 14.0829 26.1728 14.0337C26.2151 13.9541 26.2948 13.9388 26.4151 13.9829ZM16.3779 14.2168C16.3931 14.232 16.4321 14.3066 16.4677 14.3812C16.5016 14.4558 16.5812 14.6253 16.6456 14.7591C16.7101 14.893 16.7626 15.0066 16.7626 15.0134C16.7626 15.0185 16.7948 15.0897 16.8321 15.1693C17.0202 15.5591 17.2185 15.9812 17.2626 16.0846C17.2846 16.1371 17.3592 16.2981 17.4287 16.4422C17.4982 16.5863 17.5795 16.7608 17.6084 16.8303C17.6389 16.8998 17.7016 17.0303 17.749 17.1185L17.8338 17.2795L17.8067 17.3541C17.7914 17.3947 17.7829 17.4337 17.788 17.4405C17.7931 17.4473 17.8321 17.4592 17.8762 17.4659C18.0456 17.4897 18.1643 17.5659 18.2558 17.71C18.349 17.8541 18.3117 18.0303 18.1592 18.1727C18.1321 18.1964 18.0779 18.2337 18.0372 18.2541C17.9456 18.3015 17.8304 18.293 17.7236 18.2286C17.6304 18.1744 17.6084 18.1507 17.544 18.0269C17.4575 17.8642 17.4745 17.7914 17.6389 17.5981C17.6812 17.549 17.7101 17.5015 17.7033 17.4914C17.6982 17.4829 17.6677 17.4744 17.6372 17.4744C17.5643 17.4744 17.4965 17.4202 17.4575 17.332C17.4406 17.293 17.3965 17.1981 17.3592 17.1185C17.3219 17.0388 17.188 16.749 17.0592 16.4744C16.9321 16.1998 16.8168 15.9608 16.805 15.9405C16.7931 15.9219 16.7779 15.888 16.7711 15.8642C16.7643 15.8405 16.7016 15.7049 16.6338 15.5625C16.5643 15.4202 16.5084 15.2981 16.5084 15.293C16.5084 15.288 16.4829 15.2303 16.4507 15.1625C16.4185 15.0964 16.3406 14.9354 16.2795 14.8049C16.2185 14.6744 16.1592 14.5524 16.149 14.5337C16.0728 14.3981 16.0711 14.3829 16.1185 14.288C16.1423 14.2405 16.1677 14.2168 16.2084 14.2049C16.2931 14.1795 16.349 14.1846 16.3779 14.2168ZM9.29141 15.193C9.57955 15.3303 9.70666 15.6575 9.57955 15.9371C9.49141 16.1286 9.28124 16.2829 9.08124 16.3015C8.99988 16.3083 8.9609 16.3015 8.86768 16.2642C8.73548 16.2134 8.60666 16.1083 8.55751 16.0151C8.53548 15.971 8.51344 15.949 8.49141 15.949C8.45921 15.949 8.45751 15.9371 8.45751 15.7202C8.45751 15.5134 8.4609 15.4914 8.48802 15.4914C8.50497 15.4914 8.54056 15.4524 8.57446 15.3981C8.72361 15.1608 9.03548 15.071 9.29141 15.193ZM26.0812 15.9981C26.1406 16.0286 26.2202 16.1371 26.2202 16.188C26.2202 16.1998 26.0812 16.3507 25.9101 16.5236C25.7406 16.6964 25.4948 16.9507 25.3643 17.0863C25.2338 17.2219 25.044 17.4202 24.9406 17.5269C24.8389 17.6337 24.5897 17.893 24.3897 18.1015C23.7897 18.7269 23.2677 19.271 22.8456 19.71C22.627 19.9371 22.3507 20.2269 22.2304 20.3541C22.1101 20.4812 21.9151 20.6829 21.7965 20.8049C21.6795 20.9253 21.4016 21.2151 21.1779 21.449C20.4084 22.2558 20.3406 22.3219 20.2948 22.3219C20.2219 22.3219 20.1236 22.2608 20.1033 22.2015C20.0626 22.0846 19.9219 22.2456 21.6423 20.4558C22.1134 19.9676 22.5643 19.4981 22.644 19.4151C22.7236 19.3303 22.8965 19.1524 23.0253 19.0168C23.1558 18.8812 23.4185 18.6066 23.6101 18.4066C23.8016 18.2066 24.0829 17.9117 24.2372 17.7541C24.3914 17.5947 24.5779 17.4015 24.6524 17.3219C24.7253 17.2422 24.9084 17.0524 25.0592 16.8981C25.2084 16.7439 25.4711 16.471 25.6406 16.2914C25.8372 16.0863 25.9643 15.9659 25.9846 15.9659C26.0033 15.9659 26.0473 15.9812 26.0812 15.9981ZM9.95921 16.3083C10.0863 16.4236 10.2728 16.5897 10.3728 16.6778C10.4711 16.7659 10.688 16.9608 10.8541 17.11C11.0202 17.2591 11.2456 17.4608 11.3558 17.5592C11.466 17.6575 11.6795 17.8473 11.8304 17.9829C12.166 18.2829 12.3914 18.4846 12.7897 18.8388C12.9558 18.9863 13.0965 19.1134 13.1016 19.1185C13.1117 19.1303 13.5084 19.4863 13.7456 19.6947C14.8507 20.6727 14.888 20.7117 14.8558 20.8134C14.8423 20.8558 14.7101 20.949 14.6626 20.949C14.644 20.949 14.5541 20.8829 14.4626 20.7998C14.2033 20.571 13.8643 20.2693 13.5846 20.0168C13.2982 19.7591 12.7779 19.293 12.6202 19.1541C12.5626 19.1049 12.4829 19.032 12.4406 18.993C12.3677 18.9253 12.1812 18.7591 11.8897 18.5015C11.6745 18.31 11.4151 18.0778 11.4067 18.0676C11.3931 18.0507 9.9948 16.8015 9.75073 16.588C9.62531 16.4778 9.51514 16.3693 9.50497 16.3456C9.48802 16.31 9.4931 16.2947 9.53717 16.232C9.58124 16.171 9.67616 16.1015 9.71514 16.1015C9.72192 16.1015 9.83209 16.1947 9.95921 16.3083ZM17.6219 18.2744C17.705 18.3541 17.6999 18.4303 17.6067 18.5388C17.466 18.6998 16.9389 19.3405 16.5287 19.8473C16.4575 19.9354 16.3134 20.1066 16.2117 20.2286C16.1084 20.349 15.9541 20.5388 15.866 20.6473C15.6948 20.8625 15.6406 20.8981 15.5524 20.8642C15.4846 20.8388 15.4677 20.8591 15.505 20.9219C15.5236 20.9524 15.5507 21.0168 15.566 21.0642C15.5931 21.1456 15.5931 21.1592 15.5677 21.2575C15.5355 21.3863 15.4863 21.4405 15.344 21.5117C15.2524 21.5558 15.2253 21.5625 15.1507 21.5541C15.0423 21.5405 14.9219 21.4676 14.8575 21.3761C14.8185 21.3219 14.805 21.2812 14.7999 21.2049C14.7795 20.9236 14.9677 20.7558 15.2914 20.7659L15.4151 20.771L15.4236 20.6947C15.4321 20.6303 15.4507 20.5947 15.5338 20.4981C15.5897 20.432 15.7151 20.2795 15.8134 20.1608C15.9117 20.0422 16.0914 19.8253 16.2117 19.6778C16.3338 19.532 16.5084 19.3185 16.6016 19.2032C16.6948 19.0897 16.8711 18.8761 16.9914 18.7303C17.1134 18.5846 17.2524 18.4151 17.3016 18.3524C17.3524 18.288 17.405 18.2286 17.4202 18.2202C17.4694 18.1897 17.5609 18.2151 17.6219 18.2744ZM15.8456 21.4829C15.9287 21.549 16.2202 21.7761 16.4575 21.9575C16.6728 22.1219 16.9016 22.2964 16.9931 22.3693C17.0507 22.4134 17.1829 22.5134 17.288 22.593C17.3914 22.6727 17.6321 22.8558 17.8202 22.9998C18.0067 23.1456 18.2304 23.3168 18.3134 23.3812C18.3982 23.4456 18.5914 23.593 18.7456 23.71C18.8999 23.8253 19.0338 23.932 19.0456 23.9473C19.0575 23.9625 19.0677 24.0015 19.0677 24.0354C19.0677 24.088 19.0575 24.1066 18.9931 24.1592C18.8728 24.2575 18.8728 24.2575 18.549 24.0032C18.4372 23.9168 18.3134 23.8202 18.2711 23.788C18.2287 23.7558 18.1219 23.6744 18.0338 23.6049C17.9456 23.5371 17.7626 23.3964 17.627 23.2947C17.3982 23.1202 17.3117 23.0541 17.0694 22.8676C17.0168 22.8269 16.9067 22.7422 16.8219 22.6778C16.7389 22.6151 16.5897 22.4998 16.4914 22.4253C16.3287 22.2981 16.2084 22.2066 15.7711 21.8744C15.4779 21.6507 15.4575 21.6185 15.5287 21.4964C15.5779 21.4134 15.5863 21.4066 15.6762 21.4066C15.7389 21.4066 15.7643 21.4185 15.8456 21.4829ZM19.9117 22.2134C20.0389 22.2507 20.1372 22.3558 20.188 22.5066C20.2236 22.6117 20.2236 22.6185 20.1965 22.7032C20.1762 22.7693 20.1456 22.8134 20.0846 22.871C19.9779 22.971 19.9101 22.9998 19.7795 22.9998C19.6762 22.9998 19.6745 22.9998 19.5728 22.9015C19.3677 22.7083 19.3507 22.5371 19.5219 22.3388C19.5812 22.2676 19.7236 22.1863 19.7846 22.1863C19.8033 22.1863 19.8592 22.1981 19.9117 22.2134ZM19.7202 23.0914C19.8711 23.1269 19.8948 23.1846 19.8321 23.3591C19.8134 23.4083 19.7897 23.4981 19.7795 23.5591C19.7694 23.6202 19.749 23.7219 19.7355 23.7846C19.7101 23.8897 19.7016 23.9032 19.6338 23.9507C19.5473 24.01 19.549 24.0236 19.6541 24.0981C19.7321 24.1558 19.7728 24.2286 19.7965 24.3575C19.8185 24.4693 19.8355 24.488 19.8643 24.4337C19.8914 24.3829 19.9762 24.3388 20.049 24.3388C20.0779 24.3388 20.1948 24.3608 20.3101 24.388C20.4236 24.4151 20.5592 24.4456 20.6101 24.4558C20.6609 24.4659 20.7575 24.4846 20.8219 24.4998C20.9575 24.5303 21.0745 24.5541 21.4321 24.6269C21.5728 24.6558 21.7711 24.6998 21.8728 24.7236C21.9762 24.7473 22.1507 24.7846 22.2626 24.8049C22.3745 24.8269 22.5762 24.8676 22.7118 24.8964C22.8473 24.9269 23.0338 24.9659 23.127 24.9863C23.3406 25.0303 23.4287 25.071 23.4745 25.1473C23.4931 25.1795 23.5185 25.2032 23.5304 25.1998C23.5406 25.1947 23.5745 25.1558 23.605 25.11C23.6863 24.988 23.7745 24.9049 23.8795 24.8524C23.9592 24.8134 23.9965 24.8066 24.1101 24.8066C24.2287 24.8049 24.2575 24.8117 24.349 24.8591C24.566 24.9727 24.7118 25.2117 24.6897 25.4219C24.6677 25.632 24.5473 25.8049 24.3524 25.9066C24.244 25.9642 24.2168 25.971 24.1101 25.971C24.0168 25.9693 23.9694 25.9592 23.8897 25.9219C23.7016 25.8337 23.5558 25.6439 23.5338 25.4558C23.5219 25.3625 23.4948 25.271 23.4779 25.271C23.4728 25.271 23.4524 25.2863 23.4338 25.3032C23.3473 25.3846 23.3134 25.3897 23.1558 25.3456C23.0745 25.3236 22.9287 25.293 22.8304 25.2778C22.7321 25.2642 22.6067 25.2371 22.5507 25.2202C22.4948 25.2049 22.4117 25.1846 22.3643 25.1795C22.3185 25.1727 22.2219 25.1524 22.1524 25.1354C22.0829 25.1185 21.9524 25.0914 21.8643 25.0761C21.7762 25.0625 21.6423 25.0354 21.5677 25.0168C21.4931 24.9998 21.3524 24.9676 21.2541 24.9473C21.1558 24.9269 20.9812 24.8897 20.8643 24.8625C20.7473 24.8371 20.5779 24.8032 20.4863 24.788C20.3965 24.7727 20.3016 24.7541 20.2762 24.7439C20.2524 24.7354 20.1694 24.7151 20.0948 24.6998C19.944 24.671 19.8931 24.6371 19.8609 24.5473C19.849 24.5168 19.8355 24.4914 19.8287 24.4914C19.8219 24.4914 19.7982 24.5236 19.7745 24.5625C19.7151 24.6642 19.6423 24.7286 19.5202 24.788C19.4287 24.832 19.4151 24.8439 19.4202 24.8812C19.4338 24.9795 19.4287 25.0507 19.3948 25.1863C19.3338 25.4303 19.188 25.9964 19.127 26.2286C19.0948 26.349 19.0575 26.4947 19.044 26.5507C19.0304 26.6066 19.0067 26.6981 18.9931 26.7541C18.8982 27.1219 18.705 27.9066 18.688 27.9947C18.6626 28.1185 18.649 28.1371 18.5592 28.1778C18.4863 28.21 18.4762 28.2371 18.5168 28.271C18.5321 28.2829 18.5779 28.3388 18.6185 28.393C18.688 28.4863 18.6948 28.5032 18.6948 28.5947C18.6948 28.7236 18.6456 28.8286 18.5524 28.9066C18.4626 28.9795 18.4033 29.0015 18.2931 29.0015C18.1829 29.0015 18.1101 28.9625 17.9456 28.8151C17.905 28.7795 17.8982 28.7778 17.888 28.8032C17.8829 28.8185 17.8812 28.8507 17.8863 28.8761C17.9033 28.9676 17.844 29.0388 17.7253 29.0676C17.6948 29.0761 17.6016 29.1049 17.5202 29.1337C17.3117 29.2066 17.2846 29.2049 17.2117 29.1049C17.0931 28.9439 17.1253 28.9134 17.5863 28.7371C17.6592 28.71 17.7219 28.6947 17.7423 28.7015C17.7609 28.7083 17.7948 28.7083 17.8185 28.7032C17.8524 28.6947 17.8626 28.6761 17.8812 28.5964C17.9236 28.4066 18.0626 28.2541 18.227 28.2168C18.3304 28.193 18.344 28.1761 18.3338 28.0761C18.3287 28.0185 18.3355 27.9608 18.3575 27.8981C18.3745 27.8473 18.3965 27.7558 18.4067 27.6981C18.4168 27.6388 18.4389 27.5422 18.4575 27.4863C18.4745 27.4286 18.5117 27.2778 18.5423 27.1524C18.5728 27.0269 18.6101 26.8778 18.627 26.8219C18.6456 26.7659 18.6711 26.6592 18.6846 26.5846C18.6999 26.51 18.7423 26.3337 18.7795 26.1947C18.8168 26.0541 18.8728 25.8219 18.9067 25.6778C18.9406 25.5337 18.9863 25.3541 19.0084 25.2795C19.0304 25.2049 19.0541 25.1134 19.0592 25.0761C19.0779 24.9575 19.1016 24.9049 19.1524 24.8558C19.1812 24.8286 19.2033 24.793 19.2033 24.7761C19.2033 24.7575 19.1711 24.7083 19.1304 24.6642C19.049 24.5744 18.9999 24.4795 18.9999 24.41C18.9999 24.3829 19.0151 24.3168 19.0338 24.2608C19.0711 24.1524 19.0863 24.1388 19.3219 24.0151C19.4117 23.9659 19.4253 23.9219 19.3711 23.8456C19.3338 23.793 19.3338 23.7897 19.3609 23.7049C19.3829 23.632 19.4389 23.3981 19.4829 23.1981C19.4931 23.1456 19.5626 23.0676 19.5965 23.0676C19.6084 23.0676 19.6643 23.0795 19.7202 23.0914ZM16.7406 28.732C16.8219 28.7625 16.866 28.7947 16.988 28.9219L17.1355 29.0744V29.2202C17.1355 29.3015 17.1253 29.4032 17.1117 29.4473C17.0812 29.549 16.9677 29.6998 16.8812 29.7541C16.844 29.7778 16.8134 29.8083 16.8134 29.8219C16.8134 29.8439 16.7728 29.8473 16.5507 29.8473C16.344 29.8473 16.288 29.8422 16.288 29.8253C16.288 29.8117 16.2541 29.7778 16.2134 29.749C16.1236 29.6846 16.0321 29.5625 15.9914 29.4541C15.949 29.3405 15.9626 29.1575 16.0219 29.0422C16.088 28.9134 16.2253 28.7897 16.3558 28.7388C16.4948 28.6863 16.6101 28.6829 16.7406 28.732Z" fill="white"/>
<path d="M36.142 9.20842C35.8522 9.49825 35.8132 9.54571 35.8132 9.60503C35.8132 9.6491 35.8895 9.78808 35.9742 9.89825C36.0149 9.9491 36.0946 10.0745 36.1522 10.1779C36.2098 10.2796 36.2827 10.4016 36.3132 10.4491C36.3437 10.4949 36.4268 10.644 36.4997 10.7796C36.5725 10.9152 36.6522 11.0559 36.6759 11.0932C36.7014 11.1305 36.7471 11.2203 36.7776 11.2915C36.8098 11.3644 36.8624 11.4711 36.8963 11.5305C36.9302 11.5881 36.9861 11.7016 37.0217 11.7796C37.059 11.8593 37.1251 11.9999 37.1692 12.0932C37.3081 12.3779 37.3556 12.4864 37.3556 12.5118C37.3556 12.5271 37.4064 12.644 37.4675 12.7728C37.5285 12.9033 37.5895 13.0457 37.6014 13.0932C37.6471 13.2542 37.742 13.5169 37.7759 13.5762C37.8149 13.6423 37.8776 13.8254 37.9505 14.0762C38.0115 14.2898 38.0946 14.5423 38.1386 14.6525C38.1573 14.6983 38.1827 14.7898 38.1946 14.8559C38.2217 15.0033 38.3064 15.3423 38.3725 15.5677C38.4302 15.7644 38.5081 16.1474 38.5573 16.4762C38.5776 16.6033 38.6047 16.7389 38.6183 16.7796C38.6319 16.8203 38.6556 16.9491 38.6692 17.066C38.6827 17.183 38.7098 17.3677 38.7285 17.4745C38.759 17.661 38.7827 17.8966 38.8047 18.2288C38.8098 18.3118 38.8251 18.5338 38.8386 18.7203C38.9014 19.5949 38.9047 20.5389 38.8471 21.0508C38.8369 21.1305 38.8183 21.3779 38.8047 21.6033C38.7793 22.0237 38.7624 22.1881 38.72 22.4067C38.7064 22.4762 38.6878 22.6288 38.6776 22.7457C38.6675 22.8627 38.6403 23.0305 38.6183 23.1203C38.5946 23.2084 38.5675 23.3576 38.5573 23.4508C38.5471 23.5423 38.52 23.6813 38.498 23.7559C38.4759 23.8322 38.4454 23.9728 38.4319 24.0677C38.4166 24.1627 38.3895 24.2745 38.3708 24.3169C38.3539 24.3576 38.3285 24.461 38.3132 24.5474C38.2997 24.6338 38.2725 24.744 38.2539 24.7949C38.2353 24.844 38.2081 24.9355 38.1946 24.9999C38.181 25.0627 38.1539 25.1542 38.1353 25.2033C38.1149 25.2542 38.0878 25.3525 38.0725 25.422C38.059 25.4932 38.0319 25.5779 38.0149 25.6118C37.998 25.6457 37.9708 25.7254 37.9556 25.7898C37.9403 25.8542 37.9115 25.944 37.8895 25.9915C37.8692 26.0372 37.8437 26.1118 37.8336 26.1542C37.8217 26.1983 37.7912 26.2813 37.7624 26.3406C37.7353 26.3999 37.7115 26.4627 37.7115 26.4813C37.7115 26.4983 37.6844 26.5711 37.6522 26.644C37.62 26.7169 37.5929 26.7864 37.5929 26.7999C37.5929 26.8118 37.5658 26.8779 37.5336 26.9474C37.5014 27.0152 37.4742 27.0847 37.4742 27.1016C37.4742 27.1186 37.4522 27.1762 37.4234 27.2288C37.3963 27.2813 37.3725 27.3321 37.3725 27.3423C37.3725 27.3508 37.3386 27.4288 37.2963 27.5152C37.2539 27.6033 37.22 27.683 37.22 27.6949C37.22 27.7067 37.198 27.7525 37.1725 27.7949C37.1454 27.8372 37.1183 27.8949 37.1115 27.9237C37.1047 27.9508 37.0776 28.0084 37.0522 28.0525C37.0251 28.0949 36.998 28.1474 36.9912 28.1711C36.9844 28.1932 36.9573 28.2457 36.9319 28.2898C36.9064 28.3321 36.8793 28.3847 36.8725 28.4084C36.8658 28.4305 36.8403 28.483 36.8149 28.5254C36.7895 28.5677 36.759 28.6271 36.7488 28.6559C36.7386 28.6864 36.7081 28.744 36.681 28.783C36.6539 28.8237 36.6251 28.8728 36.6183 28.8949C36.6115 28.9169 36.5692 28.9966 36.5251 29.0728C36.4793 29.1491 36.3929 29.2949 36.3336 29.3983C36.0912 29.8118 36.0386 29.8999 35.9268 30.0627C35.9064 30.0915 35.8403 30.1949 35.7793 30.2898C35.7183 30.3847 35.6319 30.5101 35.5844 30.5694C35.5386 30.6271 35.4725 30.7203 35.4403 30.7745C35.4081 30.8288 35.3166 30.9593 35.2369 31.066C35.1573 31.1711 35.0776 31.2779 35.059 31.3033C34.9607 31.4372 34.7268 31.7338 34.6522 31.8203C34.442 32.066 34.0149 32.5508 33.8573 32.7203C33.681 32.9118 32.9793 33.6203 32.8895 33.6949C32.8607 33.7186 32.7963 33.7745 32.7454 33.8186C32.6946 33.8644 32.6234 33.9254 32.5861 33.9542C32.4336 34.0796 32.22 34.2677 32.1098 34.3728C31.9759 34.5016 31.7573 34.6779 31.6946 34.7118C31.6708 34.7237 31.6336 34.7491 31.6098 34.766C31.5861 34.7847 31.5251 34.8321 31.4725 34.8694C31.42 34.9084 31.3285 34.983 31.2692 35.0355C31.2098 35.0864 31.1031 35.1627 31.0336 35.2033C30.8878 35.2898 30.7471 35.3881 30.7132 35.4305C30.681 35.4694 30.5183 35.5762 30.4912 35.5762C30.4607 35.5762 30.3319 35.6576 30.2471 35.7288C30.1556 35.8084 30.0454 35.8813 30.0183 35.8813C29.9844 35.8813 29.8454 35.966 29.7641 36.0372C29.7234 36.0728 29.681 36.1016 29.6708 36.1016C29.6607 36.1033 29.6217 36.1169 29.5844 36.1355C29.5471 36.1542 29.5064 36.1677 29.4963 36.1694C29.4844 36.1694 29.4454 36.1949 29.4115 36.2271C29.3386 36.2915 29.1861 36.3728 29.1386 36.3728C29.1217 36.3728 29.0929 36.3881 29.0776 36.405C29.0302 36.4576 28.8539 36.5593 28.8081 36.5593C28.7861 36.5593 28.7336 36.5847 28.6929 36.6152C28.5759 36.7033 28.4929 36.7457 28.4386 36.7457C28.4064 36.7457 28.3675 36.766 28.3234 36.805C28.2878 36.8372 28.2454 36.8644 28.2302 36.8644C28.1793 36.8644 27.9861 36.9508 27.9471 36.9932C27.9183 37.0237 27.8912 37.0338 27.8386 37.0338C27.7895 37.0338 27.759 37.044 27.7369 37.0677C27.7217 37.0847 27.6725 37.1135 27.6285 37.1288C27.5861 37.1457 27.5437 37.1644 27.5353 37.1728C27.5251 37.1796 27.498 37.1864 27.4708 37.1864C27.4437 37.1864 27.4014 37.2067 27.3675 37.2372C27.3234 37.2762 27.2929 37.2881 27.242 37.2881C27.1912 37.2881 27.1573 37.3016 27.1081 37.3406C27.059 37.3796 27.0302 37.3898 26.9963 37.383C26.9675 37.3779 26.9369 37.3847 26.9115 37.405C26.8675 37.4372 26.6353 37.5254 26.5895 37.5254C26.5742 37.5254 26.5369 37.5457 26.5081 37.5711C26.4675 37.605 26.4369 37.6152 26.3912 37.6135C26.342 37.6101 26.3115 37.622 26.2641 37.6593C26.2115 37.7016 26.1929 37.7067 26.159 37.6932C26.1047 37.6728 26.1166 37.6694 26.0403 37.7305C25.9861 37.7728 25.9658 37.7796 25.9132 37.7711C25.8641 37.7627 25.8437 37.7677 25.8014 37.8033C25.7624 37.8355 25.7285 37.8474 25.6759 37.8474C25.6285 37.8474 25.5861 37.861 25.559 37.8813C25.5319 37.9016 25.4895 37.9152 25.4454 37.9152C25.398 37.9152 25.3539 37.9288 25.3132 37.9559C25.2675 37.9881 25.2386 37.9949 25.1946 37.9881C25.1471 37.9813 25.12 37.9881 25.0675 38.0254C25.0081 38.066 24.9946 38.0694 24.9471 38.0525C24.8997 38.0355 24.8878 38.0389 24.842 38.0779C24.7963 38.1152 24.7793 38.1203 24.7149 38.1118C24.6505 38.1033 24.6319 38.1084 24.5895 38.144C24.5454 38.1813 24.5268 38.1864 24.4641 38.1762C24.4064 38.1677 24.3793 38.1728 24.3336 38.2016C24.2929 38.2271 24.2471 38.2372 24.1844 38.2372C24.1251 38.2372 24.0776 38.2474 24.0505 38.266C24.0217 38.2864 23.9742 38.2966 23.9064 38.2966C23.8353 38.2966 23.7878 38.3067 23.7556 38.3271C23.7183 38.3525 23.6912 38.3559 23.6251 38.3474C23.5556 38.3372 23.5336 38.3406 23.5047 38.366C23.4793 38.3898 23.442 38.3983 23.3573 38.3999C23.2861 38.3999 23.2251 38.4118 23.1878 38.4305C23.1454 38.4542 23.1098 38.4576 23.0353 38.4508C22.959 38.4406 22.9319 38.4457 22.8929 38.4711C22.8522 38.4983 22.8234 38.5033 22.7353 38.4949C22.6539 38.4898 22.6183 38.4932 22.5861 38.5152C22.5353 38.5474 22.4929 38.5491 22.4047 38.5237C22.3488 38.5067 22.3336 38.5084 22.2793 38.5423C22.2251 38.5762 22.2031 38.5796 22.1098 38.5694C22.02 38.561 21.9912 38.5644 21.9353 38.5932C21.8827 38.6203 21.859 38.6254 21.8234 38.6101C21.7539 38.5847 21.6488 38.5898 21.5997 38.6203C21.5692 38.6406 21.5403 38.6457 21.4861 38.6355C21.4471 38.6305 21.3895 38.6203 21.359 38.6152C21.3217 38.6084 21.2827 38.6169 21.2454 38.6372C21.1929 38.6644 21.1759 38.666 21.0539 38.6457C20.9336 38.6254 20.9132 38.6271 20.8641 38.6525C20.8149 38.6779 20.7946 38.6796 20.6776 38.6593C20.5658 38.6423 20.5369 38.6423 20.481 38.6644C20.4268 38.6847 20.3963 38.6864 20.3047 38.6694C20.2183 38.6559 20.1776 38.6559 20.1132 38.6745C20.042 38.6932 20.0132 38.6932 19.8946 38.6694C19.82 38.6542 19.7319 38.6457 19.7014 38.6508C19.6692 38.6559 19.6166 38.666 19.5844 38.6711C19.5471 38.6779 19.4776 38.6694 19.4064 38.6508C19.3098 38.6271 19.2793 38.6237 19.2234 38.6406C19.1285 38.6694 19.0641 38.666 18.9454 38.6254C18.842 38.5881 18.8386 38.5881 18.7505 38.6186C18.6658 38.6474 18.6539 38.6474 18.5708 38.622C18.4031 38.5711 18.2912 38.5559 18.1573 38.5677C18.042 38.5779 18.0149 38.5745 17.9403 38.5406C17.8692 38.5084 17.8234 38.5016 17.6403 38.4983C17.4573 38.4949 17.4064 38.4881 17.2929 38.4491C17.1878 38.4118 17.1234 38.4016 16.9827 38.3983C16.8319 38.3949 16.7692 38.383 16.5759 38.3254C16.3624 38.2627 16.1878 38.2321 16.0539 38.2355C16.0234 38.2372 15.9624 38.2237 15.9183 38.205C15.8742 38.1881 15.8014 38.1627 15.7539 38.1474C15.7081 38.1338 15.6471 38.1135 15.6183 38.105C15.5149 38.0694 15.3115 38.0186 15.2369 38.0084C15.0047 37.9796 14.9047 37.9508 14.3641 37.7491C14.2895 37.7203 14.2031 37.6898 14.1742 37.6796C14.1437 37.6694 14.0929 37.6525 14.0641 37.6423C14.0336 37.6321 13.9708 37.6118 13.9234 37.5983C13.8776 37.583 13.8031 37.5542 13.7607 37.5321C13.7166 37.5101 13.659 37.4915 13.6336 37.4915C13.6064 37.4915 13.559 37.4762 13.5268 37.4559C13.4946 37.4372 13.4183 37.4067 13.3573 37.3898C13.2963 37.3728 13.2014 37.3406 13.1471 37.3152C13.0929 37.2915 13.0369 37.2711 13.02 37.2711C13.0047 37.2711 12.9573 37.2491 12.9149 37.2203C12.8742 37.1932 12.8166 37.166 12.7878 37.1593C12.7607 37.1525 12.6793 37.1186 12.6098 37.083C12.5403 37.0457 12.4675 37.0169 12.4488 37.0169C12.4302 37.0169 12.3742 36.9898 12.3268 36.9576C12.2776 36.9254 12.2251 36.8983 12.2115 36.8983C12.1963 36.8983 12.1098 36.861 12.02 36.8152C11.5827 36.5932 11.4776 36.5423 11.4505 36.5423C11.4353 36.5423 11.381 36.5169 11.3336 36.4847C11.2844 36.4542 11.1827 36.3999 11.1098 36.3644C11.0353 36.3305 10.9369 36.2728 10.8895 36.2372C10.8437 36.2016 10.7776 36.161 10.7454 36.144C10.7132 36.1271 10.6302 36.0762 10.5624 36.0305C10.4946 35.9847 10.3573 35.9067 10.2573 35.8559C10.1522 35.8033 10.0505 35.7389 10.0166 35.7033C9.90983 35.5915 9.81322 35.5644 9.72508 35.6237C9.69966 35.6406 9.58949 35.744 9.47932 35.8559C9.36915 35.9677 9.24542 36.0864 9.20644 36.1203C9.15051 36.1677 9.13525 36.1932 9.13525 36.2338C9.13525 36.3118 9.16407 36.3593 9.23356 36.405C9.26746 36.4271 9.31661 36.4593 9.34203 36.4779C9.36746 36.4949 9.39458 36.5084 9.40305 36.5084C9.40983 36.5084 9.49288 36.5559 9.5861 36.6152C9.67763 36.6745 9.79627 36.744 9.84712 36.7694C9.89797 36.7966 9.98102 36.8542 10.0336 36.8983C10.1285 36.9813 10.2166 37.0338 10.259 37.0338C10.2725 37.0338 10.3319 37.066 10.3912 37.105C10.4505 37.144 10.5607 37.1999 10.6336 37.2321C10.7081 37.2627 10.8132 37.3186 10.8658 37.3559C10.9183 37.3932 10.9692 37.4237 10.9776 37.4237C10.9997 37.4237 11.1336 37.4983 11.2353 37.566C11.2844 37.5999 11.3369 37.6271 11.3539 37.6271C11.3692 37.6271 11.42 37.6525 11.4658 37.683C11.5132 37.7135 11.5844 37.7525 11.6268 37.7694C11.6692 37.7881 11.7793 37.8389 11.8742 37.8847C11.9675 37.9288 12.0556 37.966 12.0675 37.966C12.0793 37.966 12.1268 37.9898 12.1725 38.0169C12.2166 38.0457 12.2692 38.0677 12.2861 38.0677C12.3031 38.0677 12.3776 38.0949 12.4505 38.1288C12.5251 38.1627 12.5997 38.1949 12.6183 38.2016C12.6369 38.2101 12.7031 38.2389 12.7675 38.2677C12.8302 38.2983 12.8963 38.322 12.9132 38.322C12.9319 38.322 12.9793 38.3406 13.0183 38.3644C13.059 38.3881 13.1064 38.4067 13.1234 38.4067C13.1403 38.4067 13.2031 38.4288 13.2624 38.4576C13.3217 38.4847 13.3827 38.5084 13.3946 38.5084C13.4081 38.5084 13.4607 38.5271 13.5098 38.5491C13.5946 38.5881 13.7742 38.6423 13.9403 38.6813C13.9776 38.6898 14.0556 38.7118 14.1132 38.7305C14.1708 38.7474 14.2336 38.7627 14.2539 38.7627C14.2725 38.7627 14.3183 38.7779 14.3556 38.7966C14.3929 38.8152 14.4403 38.8305 14.4607 38.8305C14.4827 38.8305 14.5403 38.8491 14.5895 38.8728C14.6403 38.8966 14.6946 38.9152 14.7132 38.9152C14.7302 38.9152 14.7844 38.9338 14.8336 38.9559C14.998 39.0288 15.2844 39.1016 15.4573 39.1101C15.542 39.1152 15.8285 39.1932 15.9031 39.2321C15.9708 39.266 16.1217 39.2932 16.2708 39.2983C16.398 39.3016 16.6166 39.3491 16.7319 39.3983C16.7658 39.4118 16.8437 39.4237 16.9098 39.4237C17.1047 39.4237 17.2081 39.4372 17.3268 39.483C17.4251 39.5186 17.4692 39.5254 17.6403 39.5254C17.7861 39.5271 17.8556 39.5338 17.9064 39.5559C17.9573 39.5762 18.0149 39.583 18.1353 39.5796C18.2946 39.5762 18.4081 39.5915 18.5624 39.6389C18.6336 39.661 18.6522 39.661 18.7437 39.6338C18.8437 39.6067 18.8488 39.6067 18.9471 39.644C19.0251 39.6728 19.0675 39.6796 19.1217 39.6694C19.2403 39.6508 19.3759 39.6542 19.4522 39.6779C19.5098 39.6966 19.5369 39.6966 19.6149 39.6779C19.6793 39.6627 19.7353 39.661 19.7912 39.6694C19.8708 39.6847 19.9759 39.6864 20.1437 39.6779C20.1912 39.6745 20.2607 39.6779 20.3014 39.6864C20.3488 39.6949 20.4081 39.6915 20.4658 39.6779C20.5386 39.661 20.5776 39.661 20.6692 39.6779C20.7692 39.6966 20.7878 39.6966 20.8488 39.6677C20.9098 39.6423 20.9302 39.6406 21.0149 39.6576C21.142 39.6847 21.1895 39.683 21.2302 39.6525C21.2725 39.6203 21.3725 39.6203 21.4573 39.6542C21.5217 39.6796 21.5268 39.6796 21.5861 39.644C21.6403 39.6101 21.6607 39.6067 21.7742 39.6169C21.8759 39.6271 21.9098 39.6237 21.942 39.6016C21.9725 39.5813 22.0081 39.5779 22.0963 39.5864C22.1946 39.5949 22.2217 39.5915 22.281 39.561C22.3437 39.5271 22.3556 39.5271 22.4166 39.5491C22.4759 39.5694 22.4929 39.5694 22.5522 39.5457C22.5895 39.5305 22.6692 39.5186 22.7369 39.5169C22.8217 39.5169 22.8708 39.5084 22.9014 39.4881C22.9369 39.4644 22.9675 39.4593 23.0471 39.4677C23.1234 39.4762 23.159 39.4711 23.2031 39.4491C23.2454 39.4271 23.2827 39.422 23.3539 39.4288C23.4369 39.4372 23.4573 39.4338 23.5098 39.3966C23.5624 39.361 23.5776 39.3576 23.6183 39.3728C23.6742 39.3949 23.7505 39.3813 23.781 39.3457C23.7946 39.3288 23.8369 39.322 23.9166 39.322C24.0031 39.322 24.0471 39.3135 24.0912 39.2864C24.1369 39.2593 24.1675 39.2542 24.2234 39.2627C24.2844 39.2711 24.3047 39.266 24.3522 39.2321C24.4014 39.1949 24.4132 39.1932 24.4725 39.2084C24.5319 39.2254 24.5454 39.222 24.598 39.183C24.6454 39.1457 24.6675 39.1389 24.7268 39.1474C24.7827 39.1559 24.8081 39.1491 24.8471 39.122C24.8793 39.0983 24.9183 39.0864 24.9692 39.0864C25.0098 39.0881 25.0759 39.0728 25.1183 39.0525C25.1607 39.0338 25.2183 39.0169 25.2488 39.0169C25.2793 39.0169 25.342 39.0016 25.3895 38.983C25.4369 38.9644 25.4997 38.9491 25.5302 38.9491C25.5607 38.9491 25.6014 38.9372 25.62 38.9254C25.6403 38.9118 25.6929 38.8915 25.7386 38.8813C25.7844 38.8711 25.8488 38.8508 25.881 38.8372C25.9132 38.8254 25.9708 38.8067 26.0081 38.7983C26.0759 38.783 26.12 38.7694 26.2793 38.7118C26.3268 38.6949 26.3912 38.6762 26.4251 38.6711C26.4607 38.6644 26.5064 38.6457 26.5302 38.6271C26.5573 38.6067 26.598 38.5932 26.6403 38.5932C26.6895 38.5932 26.7234 38.5813 26.7641 38.5474C26.8031 38.5152 26.8336 38.5033 26.8759 38.505C26.9166 38.5084 26.9539 38.4949 27.0064 38.4576C27.0624 38.4169 27.0895 38.4067 27.1251 38.4169C27.159 38.4254 27.181 38.4186 27.2081 38.3932C27.2573 38.3491 27.3115 38.322 27.3539 38.322C27.3912 38.322 27.4742 38.2898 27.598 38.2271C27.642 38.205 27.6997 38.1864 27.7268 38.1864C27.759 38.1864 27.8014 38.1644 27.8488 38.1254C27.8895 38.0915 27.9353 38.0677 27.9556 38.0711C27.9946 38.0762 28.1217 38.0186 28.2234 37.9525C28.2573 37.9305 28.2997 37.9135 28.3166 37.9152C28.3725 37.922 28.3878 37.9152 28.4437 37.866C28.4742 37.8389 28.5251 37.8118 28.5556 37.805C28.5861 37.7983 28.6319 37.783 28.6573 37.7694C28.6827 37.7559 28.7115 37.7457 28.7217 37.7457C28.7319 37.7457 28.7708 37.7186 28.8081 37.6864C28.8505 37.6508 28.8963 37.6271 28.9234 37.6271C28.9675 37.6271 29.1302 37.5406 29.2183 37.4728C29.2403 37.4542 29.2725 37.444 29.2878 37.4491C29.3047 37.4542 29.3742 37.4169 29.4641 37.3559C29.5471 37.2999 29.6319 37.2542 29.6539 37.2542C29.6946 37.2542 29.8132 37.1813 29.9115 37.0983C29.942 37.0728 29.9793 37.0508 29.9963 37.0508C30.0403 37.0508 30.181 36.9745 30.2539 36.9118C30.3403 36.8372 30.4353 36.7796 30.4725 36.7796C30.5081 36.7796 30.6217 36.7067 30.7251 36.6169C30.7658 36.583 30.8454 36.5305 30.903 36.5016C31.0285 36.4389 31.198 36.3237 31.2454 36.2711C31.2641 36.2508 31.2946 36.2271 31.3132 36.2186C31.4285 36.166 31.6319 36.0288 31.7827 35.8999C31.9471 35.7593 32.0047 35.7152 32.0437 35.6999C32.0624 35.6949 32.0997 35.6694 32.1302 35.6457C32.159 35.622 32.22 35.5745 32.2658 35.5423C32.3098 35.5101 32.4386 35.4033 32.5522 35.305C32.6641 35.2067 32.8607 35.044 32.9878 34.944C33.542 34.505 34.6997 33.3457 35.1827 32.7457C35.2556 32.6576 35.4081 32.4694 35.5251 32.3305C35.642 32.1898 35.7624 32.0423 35.7929 31.9999C35.8234 31.9576 35.9454 31.7932 36.0641 31.6355C36.2522 31.383 36.3319 31.2728 36.398 31.1677C36.4454 31.0932 36.52 30.9847 36.5675 30.9237C36.5963 30.8864 36.6471 30.8101 36.6776 30.7542C36.7098 30.6983 36.7658 30.6084 36.8047 30.5559C36.8658 30.4694 36.9132 30.3932 37.0658 30.1389C37.0895 30.0983 37.1386 30.022 37.1742 29.9677C37.2081 29.9135 37.2369 29.861 37.2369 29.8491C37.2369 29.8389 37.2641 29.7898 37.2963 29.7389C37.3285 29.6881 37.3556 29.6406 37.3556 29.6355C37.3556 29.6288 37.3725 29.5999 37.3929 29.5711C37.4132 29.5423 37.4522 29.4762 37.4793 29.4237C37.5047 29.3728 37.5607 29.2694 37.6031 29.1949C37.6454 29.1203 37.6912 29.0288 37.7047 28.9915C37.7183 28.9542 37.7471 28.8966 37.7692 28.8644C37.7912 28.8321 37.8166 28.7779 37.8268 28.7457C37.8386 28.7135 37.8624 28.6627 37.881 28.6355C37.9285 28.566 38.0573 28.2949 38.0844 28.2118C38.0963 28.1745 38.1166 28.1288 38.1285 28.1101C38.1403 28.0915 38.1624 28.0423 38.1793 27.9999C38.1946 27.9576 38.2336 27.8711 38.2641 27.8067C38.2963 27.7423 38.3217 27.6779 38.3217 27.6644C38.3217 27.6508 38.3403 27.605 38.3641 27.566C38.3878 27.5254 38.4217 27.4423 38.4403 27.383C38.4607 27.322 38.4827 27.2677 38.4912 27.2627C38.4997 27.2576 38.5217 27.2033 38.5403 27.144C38.559 27.0847 38.5929 26.9999 38.6149 26.9542C38.6386 26.9101 38.6658 26.8321 38.6759 26.783C38.6861 26.7338 38.7132 26.6576 38.7353 26.6135C38.7573 26.5694 38.7844 26.4983 38.7946 26.4576C38.8064 26.4152 38.8336 26.3389 38.8573 26.2847C38.8793 26.2322 38.9064 26.1474 38.9166 26.0949C38.9251 26.044 38.9556 25.9542 38.981 25.8949C39.0081 25.8355 39.0353 25.7508 39.042 25.705C39.0488 25.6593 39.0708 25.583 39.0912 25.5355C39.1132 25.4881 39.1403 25.3949 39.1522 25.3305C39.1641 25.2644 39.1912 25.1694 39.2132 25.1169C39.2353 25.0644 39.2624 24.9542 39.2759 24.8711C39.2895 24.7881 39.3166 24.6796 39.3369 24.6305C39.3573 24.5813 39.3844 24.4644 39.398 24.3711C39.4115 24.2779 39.4386 24.1542 39.459 24.0983C39.4776 24.0406 39.5014 23.9288 39.5098 23.8491C39.52 23.7694 39.5454 23.6305 39.5675 23.5423C39.5912 23.4542 39.62 23.2813 39.6353 23.161C39.6505 23.0389 39.681 22.8305 39.7031 22.6949C39.7251 22.5593 39.7522 22.3338 39.7624 22.1949C39.7725 22.0542 39.7963 21.8525 39.8132 21.7457C39.8573 21.4847 39.8776 21.1237 39.8912 20.3305C39.9064 19.3559 39.8759 18.5135 39.8047 18.0762C39.7912 17.9915 39.7725 17.8169 39.7624 17.6864C39.7522 17.5559 39.7217 17.3033 39.6946 17.1271C39.6692 16.9491 39.6386 16.7355 39.6268 16.6525C39.6166 16.5677 39.5895 16.4271 39.5692 16.3389C39.5471 16.2508 39.5234 16.1338 39.5166 16.0796C39.5098 16.0254 39.4912 15.9406 39.4759 15.8932C39.4471 15.8118 39.4319 15.7372 39.3641 15.3728C39.3319 15.1949 39.2759 14.9813 39.22 14.822C39.1946 14.7474 39.159 14.6288 39.1437 14.5593C39.0946 14.3491 39.0505 14.1847 39.0064 14.0508C38.9166 13.783 38.8929 13.7169 38.8539 13.622C38.8319 13.5677 38.8132 13.5084 38.8132 13.4898C38.8132 13.4559 38.759 13.283 38.72 13.1949C38.7081 13.166 38.6844 13.105 38.6675 13.0593C38.6505 13.0118 38.6234 12.9508 38.6081 12.9237C38.5912 12.8949 38.559 12.8118 38.5353 12.7372C38.4641 12.5135 38.442 12.4576 38.3454 12.261C38.2946 12.1576 38.2539 12.0644 38.2539 12.0559C38.2539 12.0322 38.1353 11.761 38.0454 11.5847C38.0047 11.4999 37.9302 11.3457 37.8827 11.2389C37.8336 11.1322 37.7776 11.0254 37.7556 10.9999C37.7353 10.9745 37.7081 10.9271 37.6963 10.8966C37.6386 10.744 37.5692 10.6016 37.5251 10.5508C37.5098 10.5322 37.4556 10.4406 37.4064 10.3474C37.2183 9.99486 37.198 9.95588 37.159 9.91012C37.1386 9.88469 37.0895 9.80334 37.0522 9.72876C37.0166 9.65588 36.9607 9.55927 36.9285 9.5169C36.8556 9.41351 36.7437 9.23554 36.6759 9.11351C36.6183 9.01012 36.5149 8.9152 36.4641 8.9169C36.4454 8.9169 36.3014 9.0491 36.142 9.20842Z" fill="white"/>
</g>
<path d="M50.4849 14C49.6899 14 49.1024 13.81 48.7224 13.43C48.3424 13.05 48.1524 12.4625 48.1524 11.6675C48.1524 10.8675 48.3424 10.2775 48.7224 9.8975C49.1024 9.5175 49.6899 9.3275 50.4849 9.3275H53.8224C53.8024 8.7125 53.6549 8.285 53.3799 8.045C53.1099 7.805 52.6449 7.685 51.9849 7.685H51.1149C50.5249 7.685 50.0899 7.7425 49.8099 7.8575C49.5349 7.9675 49.3574 8.16 49.2774 8.435C49.2274 8.585 49.1649 8.695 49.0899 8.765C49.0199 8.83 48.9124 8.8625 48.7674 8.8625C48.6124 8.8625 48.4899 8.82 48.3999 8.735C48.3149 8.645 48.2849 8.525 48.3099 8.375C48.4049 7.805 48.6824 7.39 49.1424 7.13C49.6024 6.87 50.2599 6.74 51.1149 6.74H51.9849C52.9449 6.74 53.6474 6.965 54.0924 7.415C54.5424 7.86 54.7674 8.5625 54.7674 9.5225V13.5275C54.7674 13.8425 54.6099 14 54.2949 14C53.9799 14 53.8224 13.8425 53.8224 13.5275V12.9125C53.3274 13.6375 52.4949 14 51.3249 14H50.4849ZM50.4849 13.055H51.3249C51.7749 13.055 52.1749 13.0075 52.5249 12.9125C52.8799 12.8175 53.1699 12.66 53.3949 12.44C53.6249 12.22 53.7674 11.9225 53.8224 11.5475V10.2725H50.4849C49.9499 10.2725 49.5849 10.37 49.3899 10.565C49.1949 10.76 49.0974 11.1275 49.0974 11.6675C49.0974 12.2025 49.1949 12.5675 49.3899 12.7625C49.5849 12.9575 49.9499 13.055 50.4849 13.055ZM59.4284 17C58.8334 17 58.3759 16.8775 58.0559 16.6325C57.7359 16.3875 57.5384 16.01 57.4634 15.5C57.4434 15.34 57.4734 15.215 57.5534 15.125C57.6384 15.04 57.7609 14.9975 57.9209 14.9975C58.0709 14.9975 58.1809 15.035 58.2509 15.11C58.3209 15.19 58.3734 15.3075 58.4084 15.4625C58.4534 15.6875 58.5534 15.8425 58.7084 15.9275C58.8634 16.0125 59.1034 16.055 59.4284 16.055H62.2184C62.6384 16.055 62.9184 15.9825 63.0584 15.8375C63.2034 15.6925 63.2759 15.4125 63.2759 14.9975V12.98C63.0359 13.315 62.7084 13.57 62.2934 13.745C61.8834 13.915 61.3784 14 60.7784 14H60.2084C59.2534 14 58.5509 13.775 58.1009 13.325C57.6509 12.875 57.4259 12.1775 57.4259 11.2325V9.5225C57.4259 8.5575 57.6484 7.8525 58.0934 7.4075C58.5434 6.9625 59.2484 6.74 60.2084 6.74H61.4384C61.8834 6.74 62.2559 6.8025 62.5559 6.9275C62.8559 7.0475 63.0959 7.235 63.2759 7.49V7.2125C63.2759 6.8975 63.4334 6.74 63.7484 6.74C64.0634 6.74 64.2209 6.8975 64.2209 7.2125V14.9975C64.2209 15.6825 64.0584 16.1875 63.7334 16.5125C63.4134 16.8375 62.9084 17 62.2184 17H59.4284ZM60.2084 13.055H60.7784C61.5184 13.055 62.1184 12.945 62.5784 12.725C63.0434 12.505 63.2759 12.17 63.2759 11.72V9.05C63.2759 8.54 63.1209 8.185 62.8109 7.985C62.5059 7.785 62.0484 7.685 61.4384 7.685H60.2084C59.5184 7.685 59.0384 7.815 58.7684 8.075C58.5034 8.335 58.3709 8.8175 58.3709 9.5225V11.2325C58.3709 11.9125 58.5034 12.3875 58.7684 12.6575C59.0384 12.9225 59.5184 13.055 60.2084 13.055ZM67.8227 10.745V11.2325C67.8227 11.9175 67.9552 12.3925 68.2202 12.6575C68.4902 12.9225 68.9702 13.055 69.6602 13.055H70.8902C71.4852 13.055 71.9177 12.985 72.1877 12.845C72.4627 12.705 72.6302 12.4625 72.6902 12.1175C72.7252 11.9675 72.7802 11.855 72.8552 11.78C72.9302 11.705 73.0427 11.6675 73.1927 11.6675C73.3477 11.6675 73.4652 11.71 73.5452 11.795C73.6302 11.875 73.6602 11.995 73.6352 12.155C73.5552 12.78 73.2877 13.245 72.8327 13.55C72.3827 13.85 71.7352 14 70.8902 14H69.6602C68.7052 14 68.0027 13.775 67.5527 13.325C67.1027 12.875 66.8777 12.1775 66.8777 11.2325V9.5225C66.8777 8.5525 67.1027 7.845 67.5527 7.4C68.0027 6.95 68.7052 6.73 69.6602 6.74H70.8902C71.8502 6.74 72.5527 6.965 72.9977 7.415C73.4477 7.86 73.6727 8.5625 73.6727 9.5225V10.2725C73.6727 10.5875 73.5152 10.745 73.2002 10.745H67.8227ZM69.6602 7.685C68.9702 7.675 68.4902 7.8025 68.2202 8.0675C67.9552 8.3325 67.8227 8.8175 67.8227 9.5225V9.8H72.7277V9.5225C72.7277 8.8275 72.5952 8.3475 72.3302 8.0825C72.0652 7.8175 71.5852 7.685 70.8902 7.685H69.6602ZM76.9544 14C76.6394 14 76.4819 13.8425 76.4819 13.5275V7.2125C76.4819 6.8975 76.6394 6.74 76.9544 6.74C77.2694 6.74 77.4269 6.8975 77.4269 7.2125V7.7675C77.9219 7.0825 78.7544 6.74 79.9244 6.74H80.3444C81.3044 6.74 82.0069 6.965 82.4519 7.415C82.9019 7.86 83.1269 8.5625 83.1269 9.5225V13.5275C83.1269 13.8425 82.9694 14 82.6544 14C82.3394 14 82.1819 13.8425 82.1819 13.5275V9.5225C82.1819 8.8275 82.0469 8.3475 81.7769 8.0825C81.5119 7.8175 81.0344 7.685 80.3444 7.685H79.9244C79.2094 7.685 78.6294 7.79 78.1844 8C77.7394 8.21 77.4869 8.5375 77.4269 8.9825V13.5275C77.4269 13.8425 77.2694 14 76.9544 14ZM88.5783 14C87.6233 14 86.9208 13.775 86.4708 13.325C86.0208 12.875 85.7958 12.1725 85.7958 11.2175V9.5075C85.7958 8.5475 86.0183 7.845 86.4633 7.4C86.9133 6.95 87.6183 6.73 88.5783 6.74H89.8083C90.5483 6.74 91.1183 6.865 91.5183 7.115C91.9183 7.36 92.1633 7.7475 92.2533 8.2775C92.2833 8.4325 92.2533 8.555 92.1633 8.645C92.0783 8.73 91.9533 8.7725 91.7883 8.7725C91.6433 8.7725 91.5358 8.735 91.4658 8.66C91.3958 8.58 91.3383 8.4725 91.2933 8.3375C91.2333 8.0975 91.0883 7.93 90.8583 7.835C90.6333 7.735 90.2833 7.685 89.8083 7.685H88.5783C87.8883 7.675 87.4083 7.8025 87.1383 8.0675C86.8733 8.3275 86.7408 8.8075 86.7408 9.5075V11.2175C86.7408 11.9075 86.8733 12.3875 87.1383 12.6575C87.4083 12.9225 87.8883 13.055 88.5783 13.055H89.8083C90.2833 13.055 90.6333 13.0075 90.8583 12.9125C91.0883 12.8125 91.2333 12.6425 91.2933 12.4025C91.3383 12.2575 91.3958 12.15 91.4658 12.08C91.5408 12.005 91.6508 11.9675 91.7958 11.9675C91.9558 11.9675 92.0783 12.01 92.1633 12.095C92.2533 12.18 92.2833 12.3025 92.2533 12.4625C92.1633 12.9825 91.9183 13.37 91.5183 13.625C91.1183 13.875 90.5483 14 89.8083 14H88.5783ZM96.7766 17C96.0966 17 95.5916 16.835 95.2616 16.505C94.9366 16.175 94.7741 15.6675 94.7741 14.9825C94.7741 14.6675 94.9316 14.51 95.2466 14.51C95.5616 14.51 95.7191 14.6675 95.7191 14.9825C95.7191 15.4025 95.7916 15.685 95.9366 15.83C96.0816 15.98 96.3616 16.055 96.7766 16.055H99.4766C99.8916 16.055 100.172 15.98 100.317 15.83C100.462 15.685 100.534 15.4025 100.534 14.9825V12.9725C100.249 13.3725 99.8966 13.645 99.4766 13.79C99.0566 13.935 98.5766 14.0075 98.0366 14.0075H97.5116C96.5666 14.0075 95.8741 13.7875 95.4341 13.3475C94.9941 12.9075 94.7741 12.22 94.7741 11.285V7.205C94.7741 6.89 94.9316 6.7325 95.2466 6.7325C95.5616 6.7325 95.7191 6.89 95.7191 7.205V11.285C95.7191 11.96 95.8466 12.425 96.1016 12.68C96.3616 12.935 96.8316 13.0625 97.5116 13.0625H98.0366C98.8966 13.0625 99.5266 12.915 99.9266 12.62C100.332 12.325 100.534 11.88 100.534 11.285V7.205C100.534 6.89 100.692 6.7325 101.007 6.7325C101.322 6.7325 101.479 6.89 101.479 7.205V14.9825C101.479 15.6675 101.314 16.175 100.984 16.505C100.659 16.835 100.157 17 99.4766 17H96.7766ZM47.05 32.94C46.6633 32.7733 46.5467 32.4967 46.7 32.11L51.59 20.38C51.73 20.0533 51.9667 19.89 52.3 19.89H52.35C52.6767 19.8967 52.9033 20.06 53.03 20.38L57.95 32.11C58.1167 32.4967 58.0033 32.7733 57.61 32.94C57.2233 33.0933 56.95 32.98 56.79 32.6L55.55 29.63H49.1L47.87 32.6C47.7167 32.9867 47.4433 33.1 47.05 32.94ZM49.61 28.37H55.02L52.3 21.88L49.61 28.37ZM61.4067 33C60.9867 33 60.7767 32.79 60.7767 32.37V20.52C60.7767 20.1 60.9867 19.89 61.4067 19.89C61.6267 19.89 61.8401 20.0133 62.0467 20.26L70.3767 30.97H70.0767V20.52C70.0767 20.1 70.2867 19.89 70.7067 19.89C71.1267 19.89 71.3367 20.1 71.3367 20.52V32.37C71.3367 32.79 71.1267 33 70.7067 33C70.4801 33 70.2667 32.8767 70.0667 32.63L61.7367 21.92H62.0367V32.37C62.0367 32.79 61.8267 33 61.4067 33ZM76.0403 33C75.6203 33 75.4103 32.79 75.4103 32.37V20.52C75.4103 20.1 75.6203 19.89 76.0403 19.89H80.8603C82.547 19.89 83.7803 20.28 84.5603 21.06C85.3403 21.84 85.7303 23.0733 85.7303 24.76V28.13C85.7303 29.81 85.3403 31.0433 84.5603 31.83C83.787 32.61 82.5536 33 80.8603 33H76.0403ZM76.6703 31.74H80.8603C81.7536 31.74 82.4636 31.6267 82.9903 31.4C83.517 31.1667 83.8936 30.7867 84.1203 30.26C84.3536 29.7267 84.4703 29.0167 84.4703 28.13V24.76C84.4703 23.8733 84.3536 23.1667 84.1203 22.64C83.8936 22.1067 83.517 21.7267 82.9903 21.5C82.4636 21.2667 81.7536 21.15 80.8603 21.15H76.6703V31.74ZM98.1975 33.03C98.0308 33.13 97.8708 33.16 97.7175 33.12C97.5708 33.0867 97.4442 32.99 97.3375 32.83L94.1175 27.63H90.7375V32.37C90.7375 32.79 90.5275 33 90.1075 33C89.6875 33 89.4775 32.79 89.4775 32.37V20.52C89.4775 20.1 89.6875 19.89 90.1075 19.89H94.7875C95.9542 19.89 96.8408 20.1933 97.4475 20.8C98.0542 21.4067 98.3575 22.2933 98.3575 23.46V24.06C98.3575 25.08 98.1208 25.8867 97.6475 26.48C97.1808 27.0733 96.4908 27.4367 95.5775 27.57L98.4175 32.17C98.6242 32.5233 98.5508 32.81 98.1975 33.03ZM90.7375 26.37H94.7875C95.6075 26.37 96.1975 26.19 96.5575 25.83C96.9175 25.4633 97.0975 24.8733 97.0975 24.06V23.46C97.0975 22.6467 96.9175 22.06 96.5575 21.7C96.1975 21.3333 95.6075 21.15 94.7875 21.15H90.7375V26.37ZM105.678 33C104.204 33 103.124 32.6567 102.438 31.97C101.751 31.2833 101.408 30.2033 101.408 28.73V24.15C101.408 22.6633 101.751 21.58 102.438 20.9C103.131 20.2133 104.208 19.8767 105.668 19.89H108.078C109.558 19.89 110.638 20.2333 111.318 20.92C112.004 21.6 112.348 22.68 112.348 24.16V28.73C112.348 30.2033 112.004 31.2833 111.318 31.97C110.638 32.6567 109.558 33 108.078 33H105.678ZM105.678 31.74H108.078C108.831 31.74 109.424 31.6467 109.858 31.46C110.298 31.2667 110.611 30.95 110.798 30.51C110.991 30.07 111.088 29.4767 111.088 28.73V24.16C111.088 23.4133 110.991 22.82 110.798 22.38C110.611 21.94 110.298 21.6267 109.858 21.44C109.424 21.2467 108.831 21.15 108.078 21.15H105.668C104.921 21.1433 104.328 21.2333 103.888 21.42C103.454 21.6067 103.141 21.92 102.948 22.36C102.761 22.8 102.668 23.3967 102.668 24.15V28.73C102.668 29.4767 102.761 30.07 102.948 30.51C103.141 30.95 103.458 31.2667 103.898 31.46C104.338 31.6467 104.931 31.74 105.678 31.74ZM116.718 33C116.298 33 116.088 32.79 116.088 32.37V20.52C116.088 20.1 116.298 19.89 116.718 19.89C117.012 19.89 117.248 20.0267 117.428 20.3L122.318 27.74L122.038 27.78L126.948 20.3C127.122 20.0267 127.375 19.89 127.708 19.89C128.068 19.89 128.248 20.1 128.248 20.52V32.37C128.248 32.79 128.038 33 127.618 33C127.198 33 126.988 32.79 126.988 32.37V21.78L127.368 21.91L122.888 28.66C122.708 28.9333 122.455 29.07 122.128 29.07C121.868 29.07 121.648 28.9333 121.468 28.66L116.988 21.91L117.348 22.03V32.37C117.348 32.79 117.138 33 116.718 33ZM132.954 33C132.534 33 132.324 32.79 132.324 32.37V20.52C132.324 20.1 132.534 19.89 132.954 19.89H140.344C140.764 19.89 140.974 20.1 140.974 20.52C140.974 20.94 140.764 21.15 140.344 21.15H133.584V25.74H137.984C138.404 25.74 138.614 25.95 138.614 26.37C138.614 26.79 138.404 27 137.984 27H133.584V31.74H140.344C140.764 31.74 140.974 31.95 140.974 32.37C140.974 32.79 140.764 33 140.344 33H132.954ZM144.658 33C144.238 33 144.028 32.79 144.028 32.37V20.52C144.028 20.1 144.238 19.89 144.658 19.89H149.478C151.164 19.89 152.398 20.28 153.178 21.06C153.958 21.84 154.348 23.0733 154.348 24.76V28.13C154.348 29.81 153.958 31.0433 153.178 31.83C152.404 32.61 151.171 33 149.478 33H144.658ZM145.288 31.74H149.478C150.371 31.74 151.081 31.6267 151.608 31.4C152.134 31.1667 152.511 30.7867 152.738 30.26C152.971 29.7267 153.088 29.0167 153.088 28.13V24.76C153.088 23.8733 152.971 23.1667 152.738 22.64C152.511 22.1067 152.134 21.7267 151.608 21.5C151.081 21.2667 150.371 21.15 149.478 21.15H145.288V31.74ZM157.009 32.94C156.623 32.7733 156.506 32.4967 156.659 32.11L161.549 20.38C161.689 20.0533 161.926 19.89 162.259 19.89H162.309C162.636 19.8967 162.863 20.06 162.989 20.38L167.909 32.11C168.076 32.4967 167.963 32.7733 167.569 32.94C167.183 33.0933 166.909 32.98 166.749 32.6L165.509 29.63H159.059L157.829 32.6C157.676 32.9867 157.403 33.1 157.009 32.94ZM159.569 28.37H164.979L162.259 21.88L159.569 28.37Z" fill="white"/>
<defs>
<clipPath id="clip0_159_618">
<rect width="40" height="40" fill="white"/>
</clipPath>
</defs>
</svg>
